<svg viewBox="-265 -265 530 530" style="display: block; margin: 0px -14px; cursor: pointer;" width="630" height="630"><rect width="100%" height="100%" fill="#bdfde2" transform="translate(-265, -265)"></rect><g fill="#bdfde2"><circle fill="#34fcfc" transform="translate(0,0)" r="262.12996389891697"></circle><circle fill="#83c3fe" transform="translate(-77.24787747686673,0)" r="182.01205032096726"></circle><circle fill="white" pointer-events="none" transform="translate(183.44706837150875,0)" r="75.8128594263252"></circle><circle fill="white" pointer-events="none" transform="translate(132.00033380511923,130.83213847520915)" r="61.90094051194885"></circle><circle fill="white" pointer-events="none" transform="translate(132.00033380511923,-130.83213847520915)" r="61.90094051194885"></circle><circle fill="white" pointer-events="none" transform="translate(43.74545671636503,-194.0171450252157)" r="43.77057479782411"></circle><circle fill="white" pointer-events="none" transform="translate(47.62692674570917,176.03969947868603)" r="30.950470255974427"></circle><circle fill="white" pointer-events="none" transform="translate(-31.958108947127982,-211.02731905773584)" r="30.950470255974427"></circle><circle fill="white" pointer-events="none" transform="translate(-140.5838360393571,0)" r="115.80605565739387"></circle><circle fill="white" pointer-events="none" transform="translate(39.99319623106868,0)" r="61.90094051194885"></circle><circle fill="white" pointer-events="none" transform="translate(-9.848174137835827,96.42150269740239)" r="43.77057479782411"></circle><circle fill="white" pointer-events="none" transform="translate(-9.848174137835827,-96.42150269740242)" r="43.77057479782411"></circle><circle fill="white" pointer-events="none" transform="translate(-76.93104222730312,-135.41207442537979)" r="30.950470255974427"></circle></g><g style="font: 10px sans-serif;" pointer-events="none" text-anchor="middle"><text style="fill-opacity: 0; display: none;" transform="translate(0,0)"></text><text style="fill-opacity: 1; display: inline;" transform="translate(0,0)"></text><text style="fill-opacity: 0; display: none;" transform="translate(-77.24787747686673,0)"></text><text style="fill-opacity: 0; display: none;" transform="translate(183.44706837150875,0)"></text><text style="fill-opacity: 0; display: none;" transform="translate(132.00033380511923,130.83213847520915)"></text><text style="fill-opacity: 0; display: none;" transform="translate(132.00033380511923,-130.83213847520915)"></text><text style="fill-opacity: 0; display: none;" transform="translate(43.74545671636503,-194.0171450252157)"></text><text style="fill-opacity: 0; display: none;" transform="translate(47.62692674570917,176.03969947868603)"></text><text style="fill-opacity: 0; display: none;" transform="translate(-31.958108947127982,-211.02731905773584)"></text><text style="fill-opacity: 0; display: none;" transform="translate(-140.5838360393571,0)"></text><text style="fill-opacity: 0; display: none;" transform="translate(39.99319623106868,0)"></text><text style="fill-opacity: 0; display: none;" transform="translate(-9.848174137835827,96.42150269740239)"></text><text style="fill-opacity: 0; display: none;" transform="translate(-9.848174137835827,-96.42150269740242)"></text><text style="fill-opacity: 0; display: none;" transform="translate(-76.93104222730312,-135.41207442537979)"></text></g></svg>