<svg style="fill: #4d4d4d" version="1.1" x="0px" y="0px"
	 width="512px" height="512px" viewBox="0 0 512 512" enable-background="new 0 0 512 512" xml:space="preserve">
<g>
	<polygon points="135.5,368 199.5,336 199.5,144 135.5,176 	"/>
	<polygon points="215.5,336 279.5,368 279.5,176 215.5,144 	"/>
	<polygon points="295.5,368 359.5,336 359.5,144 295.5,176 	"/>
	<path style="fill: none" d="M256,0C114.625,0,0,114.609,0,256s114.625,256,256,256c141.406,0,256-114.609,256-256S397.406,0,256,0z M256,472
		c-119.281,0-216-96.703-216-216S136.719,40,256,40c119.312,0,216,96.703,216,216S375.312,472,256,472z"/>
</g>
</svg>
