<svg class="chart-group" preserveAspectRatio="xMinYMin" width="939" height="939" viewBox="0,0,939,939"><g class="zoomable-group" transform="translate(469.5, 469.5)"><g class="map-features" opacity="1" transform="translate(-469.5, -469.5) "><path class="land land1" d="M511.5050508803911,807.2298077056648L509.5170666910203,806.8078990628856L505.66049518057116,804.9744885367927L499.29983662923087,800.3055012379455L497.91209635511495,798.9441111429096L496.19123568112036,798.0235254888903L490.371377584489,796.6348372080229L488.46305907594933,796.7010500778861L484.7972130839107,797.7637682763961L480.8452510530228,798.0035774854241L477.0768236456638,796.8146526759247L474.0429631541542,794.4692131187921L472.66026074796036,793.103571862197L470.94414584526294,792.2325903202845L468.8277846572396,791.9659995854827L466.92484597380735,792.3563682203703L463.26831734254984,794.1775163024968L459.3258085989728,795.065312029642L453.39040352551956,794.6932419407185L451.62378416022193,795.1896045521735L448.3743482063287,797.2230505257448L446.6093244336871,797.9377494558621L444.7698814509213,798.1036343959413L441.14248891403076,796.8435582814691L437.9137076711095,794.4301432172197L433.37744338593893,790.478756523642L431.66548304243724,789.5448314739424L427.8403335552184,788.3884237907623L421.7024266512508,787.4450112067316L419.79845225429517,787.8246670649551L418.0351615501909,788.8076273092211L414.2973952399884,790.0038734374903L412.5999854995421,790.8213369265686L409.48186318177204,793.224162718866L407.9917090454642,794.6448081424041L406.22560227551094,795.6252800479115L402.0033433180329,796.3753069291306L397.4377085019387,796.7923803941403L391.03455569404605,798.0741603880624L386.53417005195615,798.1017220954645L384.41864326233826,797.6492351893858L382.5745652403016,796.7592366621047L378.8218732069531,795.8003402832455L377.04694684590777,794.9096093579328L373.63306004238757,792.5246674217215L368.1095624878012,790.3399568472896L366.06491135125543,789.7736812424992L361.840700380224,789.1320755229963L355.98227961566204,787.9784451012656L354.07520389223237,787.35573692451L346.7908009858613,783.9317315219369L341.28054733783347,781.1806398767512L339.3757110816098,780.7739996494674L335.29198794566196,781.1080721766157L332.9765500747137,781.7920604045339L330.9342770275814,781.9852187024571L327.05683767905157,781.330466585724L323.31878580544935,779.9077757178466L318.2302029759667,776.3242195849816L316.1261474386815,775.3058521617995L311.10125161913174,773.7487582492995L306.8193494616469,773.4074940582141L302.94276021121095,773.5644695590781L298.9317840458143,773.4430635547778L294.7124054756978,773.9745366856314L286.32614037370945,776.7879046276685L280.72744909485186,779.2074344515813L278.8857438119587,779.7209663031181L273.0257627509577,780.5392097655595L270.85051094757364,780.2761751908247L268.6122795573699,779.5174523455134L264.1323808673915,778.4370847079072L258.6468090523929,776.1254187264904L254.7151666734742,774.9420312506509L252.89157965259187,773.858941923424L251.4129683737492,772.3990840447341L250.2793560068069,770.5626355778422L249.5545916604235,768.6804377280732L249.30769318392822,766.6444225721543L249.46773166284765,764.6725304313813L251.57755441959944,758.6838966460246L252.70959726104707,754.8130834409258L254.17643363288948,751.2239477319645L255.4805685728129,749.8809226795302L259.2947877788556,748.3728664026894L263.4412572980898,747.3640181952023L265.5451624710522,747.1338513672108L267.2489704497966,746.2363908038578L269.5161095817689,743.1551123377767L270.2117543090437,741.3035380779402L269.61946990648244,739.5354503318049L267.8077458898815,737.8519709362454L265.92116739204516,736.9347836530133L259.97270922167604,736.0402070155315L258.1538139629581,735.2324500092545L251.64750537459327,730.2037572027994L246.6112455906284,727.1797271233763L245.07152803109807,725.9364537189513L240.5953337976207,721.8240878895758L238.78131331416512,721.0120794453424L236.6906243064957,720.6868633432705L234.94553112695507,719.820803238581L233.61458671427272,718.360922560827L233.09913151621458,716.5918251761223L233.53451017712882,714.462148633399L233.7950233314309,710.3522622008986L232.86981529675654,708.9571327015547L229.31418258003282,707.4956138400685L225.34682459909686,706.5707840470295L223.40096507579256,705.8616458515389L221.8685479785604,704.6140321442417L218.43904917919758,699.6930935852934L217.52372209942473,697.9121709428355L214.78820736336434,687.9582089644855L212.68851785192624,684.6623416877837L211.9778757833103,682.8862990950292L211.6746672076581,680.9018570366552L212.30634984136918,679.327393552302L214.0060108455093,678.2212367447555L215.7599407640721,677.8846885926368L217.7004158429702,678.4859254307285L219.38701577005804,678.1468084551298L221.0208321397622,676.8728293762488L221.92093523541325,675.195010105329L222.15482454433982,673.1153546523619L222.78903618341064,671.2108849003816L223.82333150083355,669.481511173627L225.31802122388785,668.3677747120009L227.27405737152162,667.8145605676455L229.22098245308075,667.8644399577724L231.09286957834706,668.4608524815021L232.89163334939235,669.4941093634397L234.5503726325005,670.9625870896562L236.4202876347838,671.7772688347923L238.56964746877566,671.8299142505066L240.32332115955705,671.3235890108708L241.88394216255756,670.1536366704258L242.1041025704585,668.7318618507961L238.4766701003996,663.8141076564898L235.35415074606226,661.4869104710078L233.54830701978858,661.0577349714358L231.59981379680357,661.2283406630522L229.72552162375837,660.9063779301359L227.92494347168918,660.1467645261027L224.59967134072645,658.1944167719412L223.21256154222988,656.7858402937754L220.71644709294128,653.4264271149959L215.71242338808338,647.8026746820124L213.8525666986336,646.8186967247393L211.9766111493734,646.8219254316391L210.35457140086555,647.6552117403453L209.0558473043195,649.1559765392831L205.99943169223093,651.4851999858683L204.24960149788126,651.8745544344702L202.24236611966398,651.6522877589196L200.6893584174063,652.2661485244744L197.11552977545307,656.9926186741259L194.53467899246152,662.2412753666449L191.35173792998853,667.1966502051855L190.37592377254077,669.0337520937519L187.77652447307196,674.8289177775005L185.88842105155413,678.5042088651908L184.3854382012853,679.665720966952L182.35856915907948,680.0970361933614L180.27886144263448,679.812533231905L178.01468899568113,678.6981957201169L176.02571926724227,677.3174961554969L174.30968788900645,675.7803552152591L173.1364573514836,674.0407406784843L172.43979395425777,672.0418489064077L171.40061889599656,670.3611832296874L169.95305975658903,668.9415644008313L168.981911141379,667.2627800136097L167.79222156303013,663.325695311225L165.90749809353952,657.4986800961506L164.6556617788783,656.4688223381809L160.84807045879666,655.7371694439707L159.05834989125015,654.7980609450296L157.1930538734673,654.2403023798015L153.31088857553505,653.8869322170476L145.56634410485344,652.4067211748516L141.74407943108076,652.3794982722156L139.79385838299163,652.5834473383493L137.92459191466014,652.2408030226679L136.2036422797105,651.3540816367522L134.26634545986667,651.063010403308L132.11085807124005,651.4222969380562L130.175111425237,651.0754157389529L128.52803525694253,649.9701862797856L127.43198323282058,648.3363426447504L126.9567783087366,646.0669246121079L126.87129659101151,641.7804624935288L126.52310386987006,639.79037219156L125.6369902192771,637.8896147982286L124.13741928318836,636.4045991452522L121.88921474216295,635.3846954408455L119.82992296334783,634.8108167363962L117.82236190966114,634.7875953028961L113.95973905291203,634.0867227448934L110.07542775590923,634.1520156768775L108.21130923313672,633.8026921466026L106.36187205457259,632.9592675584518L105.26595695107062,631.5419049852135L104.72133120635272,629.5976096527693L103.77285618303495,627.7466515926862L102.35232042261032,626.0410105595865L101.742015470654,624.0937813763203L101.87138589597362,622.0121101930972L102.5932412488155,620.2293225900094L103.77542000565722,618.6849648584921L105.40475610769386,617.8176696105184L111.4328318216767,617.2914927249449L115.43336928601593,617.5599719299489L117.44452356081774,617.3094974131773L119.39954045732588,616.671944383651L120.63865185395207,615.3472146896647L121.22557546777216,613.447925559567L120.66953164244796,611.833816075613L115.69049643641029,608.5088137861767L111.85930540317054,607.1486777133314L110.08541742675061,606.1990204587355L108.52306037162839,604.8730638610868L103.77626061610204,598.5292893283086L103.68901929516755,596.9879504333176L104.86957216191445,595.3885890553556L106.43269038578683,594.3538217049027L109.93931140403834,592.9028565172566L112.6812234415986,590.2118075119179L113.8606789436617,588.5563142390347L114.44604294777082,586.712366000801L114.56904368471442,584.740219659735L115.28223170073738,583.0660532065376L119.1963441013977,578.7169971533485L119.0402625583497,577.1732321719937L115.73499678428766,574.1874058557914L110.92668963079836,570.4259653339459L109.15937005785304,569.5309693809995L105.40398786472451,568.4996554550571L99.81908775131524,566.5120470694283L97.89921680054044,566.3222032447111L95.89952000650146,566.5679337853899L94.05626455204106,566.0508773628462L89.19422998002779,562.3288593196512L88.05187223284679,560.6870085706878L87.44883151864315,558.7936156494798L86.23228215975496,557.4229062780141L84.40049351510947,556.6294556083685L82.48313336895171,556.4360292010715L80.5424227543026,556.955172230877L78.69853373279193,556.5443872527612L77.08454241316099,555.2096181780389L73.64102118545657,553.0786994160962L70.33537823156303,550.8426453320699L64.62383498111626,545.4189521498092L60.94593401346492,540.7447926909635L58.00456746689201,537.8062198392654L56.32759499244844,536.5740154018386L55.59384391498861,534.891510686587L55.86893931710233,532.7620685271813L55.13370119926208,531.1343710049359L53.38855730884529,530.0081451411597L51.62387359912145,529.4299409505566L49.709264338232515,529.3385913667644L48.15514123007847,528.4400845647251L47.02584089616016,526.7926449153883L47.084780629757915,525.2023558435576L48.205396849068165,523.4983393955563L51.07867436421611,520.8342450345599L51.6004618998104,519.2111102299586L51.07729159574319,517.2634781050165L49.94711995362741,515.6713034450349L48.142194506260694,514.4860010526127L47.07684701905964,512.9514462850693L46.752868823684594,511.01309234524706L46.890085870264556,509.0970041577293L49.20202910945204,503.66000272438305L49.73348546685497,501.762846336027L50.34634784106697,495.85947475409284L50.623185661424486,491.917601900569L49.81943850448192,490.50572857311363L47.94038241330145,489.7011291439694L46.106878701463074,489.4476284301609L44.1214430657285,489.73565247521856L42.362005501666545,489.2651812192362L40.83320399232707,487.92669795053644L39.90646295589454,486.3429139782147L39.653484032199685,484.3527770052642L38.86082018321781,482.720528791333L37.40161218358503,481.3298380740216L36.67746706034086,479.6458141793373L36.62243025167595,477.6653928457472L35.966544861970306,475.92975053309056L33.11346057659739,473.26007773591664L31.31196607228412,472.2905110295342L30.05263272901948,470.90845811235886L29.405282282345524,469.0078372075759L28.06386357061524,468.0607886209982L26.154777895917277,468.18330841607985L24.41190776860958,467.4348888140794L22.962387872831414,465.93203441255446L21.98300847363589,464.1784685188986L21.40810037835081,462.1709796729292L19.65231841245236,458.56394783510405L18.18511875048648,457.5536926483601L14.353483884250863,456.6389927442651L12.553248523167895,455.7749956774387L9.44641018062839,453.24789053457425L8.53468972124574,451.55107976282943L7.015608021199341,445.6460494181183L6.2430472093394656,443.79156104909L4.034298634775951,440.32129056097256L0.446031252960438,435.5117501081422L2.2737367544323206e-13,433.72928614520515L0.28134778871367416,431.7666455093049L1.1424919768869586,430.0003631212003L2.5807310874986342,428.485065220696L4.260427828719003,427.42211159804083L10.03500723377715,425.31438714546584L11.925406239926815,425.4148758368883L17.22500118254152,428.3861516943416L18.98568626287215,428.478173879128L20.85192905862982,427.5864519891056L22.148839781732704,426.22538396194614L22.811339726021515,424.39187703732387L24.150417522462476,423.5820632003715L27.912841772170395,424.21461354619987L31.302097553990734,426.0350119322302L35.78952334799965,429.88654955314905L37.54413388815556,430.13903410415696L43.112866911238825,428.0528926279776L44.46487445287198,426.8559443867898L45.25264845742754,425.0269891532653L47.64947942798449,422.06805784861626L48.301751932102206,420.34213493270727L48.31070882791619,418.36522848736695L48.71038000710678,416.40731820951623L49.4943261394983,414.63282236965915L50.71924098813179,413.2640763874797L54.296611426711024,411.7335956667903L60.1378804483827,410.638305106947L61.88284695482662,411.05000023898265L63.47041524040742,412.2228425263711L65.2178074514045,412.57899516369434L67.12256899222984,412.17318088322645L68.80306759155883,412.5803772029376L70.32297235269175,413.8585487154369L72.06145209271563,414.4873888826078L74.01623441928837,414.5215850155546L75.82395506400235,415.04291660671333L77.55375587728918,415.944749899626L79.37123423784601,416.19112772536573L81.34656359541464,415.6203866627302L82.75213215125177,414.52966589727293L84.81565473387832,411.27119815548485L86.29229804535112,409.96340684075676L89.61478902614817,407.9672284489452L90.95821706828497,406.70775907035386L91.98848903516,405.0501511055609L92.56684600677477,403.26308620663985L92.69709809875917,401.23699404850504L93.47189762376684,397.37178117941676L94.43565991308856,395.7110946373923L95.84484006161074,394.3439723488709L97.55043097682528,393.86782466270506L99.42477872400946,394.22211759733545L101.12667973593125,393.85488627397535L102.65911171875882,392.6565676583414L103.48724918485891,391.0990283772053L103.67969214218851,389.0755401731494L102.94856308442331,387.5074587166873L101.42739923051545,386.2903378758174L100.43757328412016,384.71108649937287L99.8492543288603,382.7644027219267L99.9077708281468,380.9000546808875L101.38379550554123,377.28384748441204L104.58652196859384,372.31245155184206L104.96606725209404,370.51651084421883L104.70329614910429,368.5289729756987L104.9549765107422,366.67279669227446L105.78713670485922,364.8958005362847L107.18430756286625,363.6912935740211L109.08514805067603,362.94663387078526L111.03377964527704,362.7525183247499L113.03223230363278,363.0540792401325L114.79484360741162,362.5769490922248L116.25649601789746,361.3186657022179L116.88685166534424,359.6971840967417L116.81562713571043,357.71793598862314L117.51187427764444,356.0442022674388L118.9719688695966,354.7854441991667L120.67095795093428,354.19476566692083L122.60761976641697,354.3268476563908L124.24317108467221,353.6780118834213L125.57723037325968,352.2484448818168L125.81607353316008,350.66586564686713L123.0627674167165,345.2321456391719L123.30358163702113,343.5948470760186L124.5717662056627,342.1629255380585L125.46031668354794,340.4413928612339L126.65691158918344,334.66979579366125L127.66697800750603,333.1724486706298L131.071097275282,331.38393745704616L132.95901530295168,330.743337707283L134.21752858544323,329.529265575371L134.84968607874544,327.63236014809354L134.90068485750317,325.76806690061494L134.37394008530805,323.82673580097526L134.74081592011657,322.19414255165975L136.13244792536284,320.76540793843833L139.22108000220487,318.4677060948634L140.4198216189793,316.9761085398977L141.1812178358066,314.973956117884L141.55516911840618,313.0121078305983L141.54342676513988,311.03578845551874L141.01486860207115,309.1498260268054L140.03406233093938,307.3565433144404L140.26643069593797,305.8834227461284L143.22431918455572,303.4149276575363L145.55584978148863,300.26362454952687L146.62971026503806,298.4922698833543L148.01388565676302,297.1163883868403L153.10030381983233,294.0090958244118L154.22891089082395,292.5132109300921L156.54489343633782,287.1085012002086L157.79597967789118,285.78120740638406L159.4841888165629,284.90823292544974L160.09678459782754,283.4482327919286L159.57024360906803,281.39920295402317L159.61866656583288,279.42539491561365L161.0522066806691,275.7994011011642L162.24753378622654,274.03058201308795L162.99607806349513,272.19111333084584L163.49123981706748,270.23300183083575L164.79645970800107,266.49232831187055L167.54189614990423,261.26492110005984L168.35462043343705,259.3175801519428L169.60217146713921,257.8788917001557L171.2857950505088,256.8938160792859L173.1465659163216,256.5179306500813L175.12230814805343,256.69414575606606L176.54477873587757,255.91869446021428L177.54124824151677,254.19612155529467L177.8381746478965,252.34052441148924L177.03168763739882,248.4730999365638L176.50008697539306,246.5899538917647L176.07725580790884,242.7352947782265L176.3130931755352,240.76807328066207L177.79804991524566,237.08687176217063L180.09668015442662,233.98096647063994L182.8927942779717,231.32960860724143L184.56920938633334,230.3417748509164L185.9979030602924,229.01646286921914L187.0516823481721,227.34973118860034L188.59726371032139,226.46660913118194L190.63491282978816,226.36680078623067L192.17873851258037,225.53779893473438L194.09174550060948,222.19663205119468L195.37484582257594,218.5064059428123L198.15193609027142,213.1067994505338L200.2532359325346,209.6056822534456L201.613293335849,208.22087282566372L203.34586653188398,207.2310281297432L204.7060276085026,205.79087361175607L205.69167186970753,204.0102488730845L207.10487220321556,203.06495070460733L209.0736753064175,202.90364593436607L210.9044761791813,203.34117039177363L212.6620722135765,204.32464095696741L214.43394366453686,204.54023706493263L216.2205409343062,203.93312135968063L217.38371804596773,202.70464257593994L217.79777151088751,200.79668540627517L218.58882244961887,199.06390263305275L219.819038401361,197.56276962277025L221.35501742587326,196.67328818368333L223.32178068468943,196.5084084699547L225.08656600853942,197.05050783395018L229.58689913190983,200.847017435839L231.2870928781806,201.5505203479097L235.2823415975413,201.43625576122395L237.31903524618133,200.88576495014877L240.95450723149952,199.33338134503083L242.24126815085287,197.99478223643473L243.0906582040575,196.2062865142634L245.47754667570166,193.13974311897346L247.13461185855613,192.3579959516992L249.163533376533,192.13337193689404L249.937814572432,191.0553286238537L249.3944955683794,189.1227168561245L249.42067445607813,187.20393264745417L250.01518478170146,185.35378787934042L251.2312704998535,184.28634955498183L253.1307858156863,184.11246709378793L256.7503325548373,182.93655843107626L258.156076106495,181.76283068560315L259.1890721791133,180.03190406457907L261.5641944310046,177.01543645485617L263.0924969669011,176.00817790660858L264.93033770641705,175.50107047154233L265.576493074027,174.25425481092043L264.80017113549184,170.4533358521403L264.88713178226044,168.4264166214216L265.9074213921008,167.5169766839408L269.7493755519438,168.14971976278684L273.71400664923976,169.1670085686428L276.1099464989677,169.3819745526871L278.07037084078866,168.98405791042387L279.72106788399697,167.97616717436904L280.8709741086727,166.51912876731785L282.7562742545674,160.63542467423122L284.4910514788621,157.10612160322398L287.10094042215087,154.1419272678777L288.7430140548677,153.62553260533969L290.6297056787139,153.93588249235745L292.38650232266514,154.7367804319938L293.8881788471979,155.9711544556576L295.5857894887233,156.38643133789992L297.47965105851836,155.8728322633733L299.0498073166809,156.50434718880297L300.3602979355694,158.22749009551262L300.9774042549477,160.04781095174621L301.02634523304755,162.02253126275264L302.0249342026459,163.46574493822118L304.03652642561656,164.3781732221796L305.6050113025767,165.6114813570739L306.85653947796095,167.1680852929294L309.9332795434889,169.57744687394734L313.39393354249455,171.38867237536851L316.601467550126,173.63304680026795L318.24201095275134,173.82317443230568L320.0136975950245,172.97316441669227L321.2193971716147,171.5658993050538L321.79559902413007,169.7103559830939L322.99791822278735,168.90592387104516L324.8892809076126,169.26288433659556L328.80041840761464,169.48377898665876L332.6473207236045,170.14047763219696L334.4119584034936,170.93203929077936L335.9864955446483,172.1593321344344L337.68982829577635,172.51069886849473L339.5215041888787,171.9312167798371L343.30915109890543,171.43046523924386L347.03179951532593,172.13337562206925L350.6915056848552,173.54659444383924L352.01653298558244,174.82265185017332L353.02612474548437,176.5336573990253L354.4783759110119,177.8107194719887L356.37324929843885,178.65358334496614L358.26833468327845,178.94767211059389L360.22636004533706,178.63878875195587L361.994364876869,177.88887907199842L363.5090146226653,176.75229243095328L365.27639708441984,176.11130275816504L367.2967826330582,175.96573636194444L369.19195339213275,176.47649624152837L370.83605917857403,177.6425735131843L372.6693080683476,178.42610742966735L374.56501240682337,178.771077393807L376.3358696132227,179.60806790102197L377.91868137730535,180.82700723316339L381.2739391406526,182.82669553588767L383.10846246277515,183.33364191769851L385.00495698170926,183.4567590484594L386.8398607810577,183.9628332671782L388.5504577364304,184.90633604201503L390.38518112881684,185.24707930996829L392.3430910417692,184.8752991781539L396.0023242479697,183.52567558597002L397.89660926299075,183.20698194765555L399.856135376333,183.271992208146L401.55830115337676,182.56760023781771L405.4483705467005,178.25370155639303L408.7179397459745,176.128777406293L410.54787711202925,175.9712532730855L412.4465216196327,176.58118543790079L416.42897575093366,177.1422273594644L418.4479697196766,176.92856810284047L420.40047943031595,176.33039645281315L422.29569876162805,176.44443224763563L427.8764167759896,179.0317820270575L429.279114287076,180.40456012263257L430.2453143448661,182.32494178104207L432.3644616734655,185.72689090653148L432.95159677170477,187.5369673169489L432.9087315339907,189.5658588687229L433.68441737658577,191.2115574941099L436.87247940369343,193.57124400685552L440.6249204499195,195.27154786098527L444.4334422533584,196.20230019552127L446.4055559438616,197.02337348769652L447.68816630926267,198.39309823181884L449.0625523952094,202.0657715641164L451.1320292591022,205.4630635589274L455.18597644659076,210.17235536855696L456.9710588947023,210.88153363786387L461.0240933097871,210.43272730536683L464.81831285432827,209.6535985832379L470.3781152685119,208.26258559832786L472.01076198653163,207.2139630228803L476.24745055497806,202.47875509099504L478.73156383758715,199.34068136576388L480.8311688774711,196.0393529025514L482.79608699674645,192.35434283226732L483.99567957869476,188.39908339562953L485.17782027672,187.24059055410726L488.8269864114459,186.17632125265754L492.2728746630637,184.39879585226754L496.0490914401721,183.49476969641273L510.3459156308204,180.96444659174995L518.2252694311396,180.06587631973798L522.0523499991418,178.81956738528697L523.9386393966411,178.41536484277094L527.8601940318972,178.64589238765893L534.0038513026943,179.34128282699476L536.1474096644365,179.15033986711296L538.2817674463881,178.57500843112666L540.0908812907182,177.61939797454488L541.5745999765977,176.2837388931166L543.3894424109099,175.60149434706545L545.4095330624591,175.57415567399948L547.3569355495456,175.16338592329976L549.2299910279271,174.31441361419456L551.1193245648187,174.12289291298657L553.1488484823903,174.47731324103552L555.2920170656234,174.33589298271545L561.9412205091057,172.69795859561054L564.0206452326966,172.55511623181155L565.9872702476273,172.90718604993162L567.9435012751796,172.87499662976916L574.1534034684928,171.4531588695845L575.5669372826032,170.1120733761245L576.2673561963193,168.1251727772651L577.1013506890326,164.216152018902L578.0009171218717,162.60950100124137L581.0117908088496,159.92226334891166L582.2862961436158,158.25337888616923L583.2389082532382,156.37088787803532L583.8035784201511,154.16645887710456L585.5839365635247,150.5130561752021L586.985210054776,146.86651021923808L588.9624554020193,143.59249161173648L590.4343330706561,142.35717853649112L592.2334210536806,141.5538625749823L596.1092050330417,140.8178512256618L597.9142484739355,140.232453336891L601.3838574930573,138.62454386746413L607.0842813941495,138.00889445782468L608.6940021454106,137.26063662144588L610.0286240795758,135.80510198573393L611.5656781903022,134.78359286148498L615.1573666479621,133.2214633481126L616.8150209737069,132.08642225925814L618.6258229223567,131.77019229433427L620.5256872941959,132.21933926171278L624.3562927250055,132.18303344265132L628.092457115732,133.0247727332262L629.9795242356467,133.0879590258637L631.8488942838649,132.657446612272L633.6771152665028,132.83090289210668L635.4646169101138,133.60836220739202L638.7490000758767,135.77302412692188L641.2512966348008,138.83461987981082L642.7937773651338,139.72660261802048L644.7455096037547,139.78452099595233L646.4059672140374,140.45322340444181L647.9032315532886,141.78430778405254L650.4111135340445,144.84304105482352L652.1831661581878,148.3602964568454L653.5422494144741,149.3101897647748L655.4379352474898,149.47677036767163L656.6760941587536,150.53924829547668L657.5818051915567,154.3541454361166L657.8525437523444,156.43133415029206L658.6142754791163,158.16542281550937L662.3854653041531,162.61137660632994L665.148971780714,165.43914437915464L668.0361480216375,168.1526304573299L668.9229084919989,169.77246104379356L669.9649537334012,173.63728670344517L671.0510373298548,175.47048853596698L671.1928493949204,177.38675538001007L670.3242880609178,179.3332127443382L670.7638064519879,180.8016514949577L672.5120947481391,181.7918459634775L673.7103461491611,183.23729786319927L674.9645279942524,189.0708486679914L675.9745729875958,190.52175115993396L677.7234043599083,191.4560114543956L678.5444763347678,192.9124184849934L678.6272396614695,194.88542719251654L679.0241872081542,196.79388562982422L679.9254759239407,198.63186890305133L682.0320335335132,201.96884413194311L683.5183538799115,205.5992371201046L683.5999888997371,207.51747175646597L683.1087172787793,209.39879786517668L683.1878994206722,211.26225047178286L685.5290322039359,217.0060269824262L687.395677617521,220.5142109686567L688.7293595188662,221.95351884378306L690.4279554966033,222.99669419481233L691.8237465013317,224.3786331264737L692.9754798559957,225.9878234441412L694.4873005411055,227.09113093295946L696.3542474601613,227.57872635120475L697.6150659976374,228.74460793735943L698.9883706992869,232.43138968174117L700.2111968901086,234.14705483190573L700.8669039126435,235.99133824745877L701.0187406958571,237.96225290417078L701.8535606825321,239.5260441070277L703.4989799941204,240.6781873015825L705.2424549474194,241.16798313135678L707.1447323903249,240.93837470491144L708.7050491468804,241.59835264918092L709.9238320558584,243.14812988035465L711.9907094261916,246.4796870742921L712.5863573425172,248.32527691208452L712.6799854035908,250.35306992382266L713.5049404121883,254.38638435904522L716.8497528938574,261.7343841820648L718.7452744856973,265.34513692199835L720.1991530846085,266.33625576697887L724.0623348293443,266.8557428719914L727.4808673355683,268.76218150707246L729.082792159691,270.13058571870715L730.3124241447431,271.73210542417837L734.8048078313636,281.11730885212273L735.4719225851995,282.95890947037424L736.3027964480625,286.82573541881357L736.5303657676864,288.84859463591783L737.5558259979962,290.12748997530707L739.3874453527906,290.82650778455354L740.7312847199814,292.03796617735134L742.7588270098449,295.3642355464981L746.9512146556349,299.5392247411155L748.4817837164978,300.5774561151484L750.3140536378892,301.21913392303213L751.9067677980215,302.1993666526041L753.3269995736059,303.5705441386717L754.9819295927896,304.4927996178867L756.8770314906033,305.07557657593134L760.4898042917912,306.521590324126L761.8452424159632,307.8390552956462L762.7774135923132,309.66791343938803L763.9525508025758,311.2121115796908L765.4349338926504,312.4688810796306L766.2283262091128,314.08347611889803L766.6878130879722,317.90848872877723L767.7907675648357,321.70676031185576L768.3241559546445,325.693434331356L769.5574008411213,329.4861426951411L769.9870273564725,331.50010851121533L770.3928395393532,335.49208809409083L771.1276024468862,337.1637413591234L775.0423700795582,341.5018984440394L775.8460143779666,343.2251837883787L776.8912476446799,347.0250619729104L777.8952910344351,348.8494839687064L779.4556140053978,352.5721657742424L781.6980417238951,355.715963932892L782.5042971708144,357.4386001580806L783.8647564471057,363.36614300734254L784.0403173788536,365.39065429524817L783.7600475641857,367.380036186727L782.6044298993838,371.16480802674323L782.382217902013,373.0417660411058L782.7235604442126,376.9265096386689L782.6761985988205,380.82804971907353L782.9780245305178,382.79222491265773L783.7866997310725,384.5147763501336L785.0376556320593,385.99836491111455L785.8470391449623,387.7207096319007L786.2518350537007,391.54772931164007L785.2003813357628,397.305499198641L784.2479195980591,398.93955224767615L782.8223999404618,400.26433393221214L781.9340192548088,401.89531057642307L781.5209481347279,403.8902483126203L781.6247448445333,405.808073606815L782.1866984766357,407.7611498043825L782.0244985487457,409.5805553285418L779.987196023108,412.9081483775726L778.8303332675414,414.4402928319614L777.1926430958456,417.969749587297L776.1024647191944,419.5535418804193L774.6093560865197,420.93439280239545L774.169693159688,422.49057765034104L774.8550318432722,424.3291348472694L776.6089193432599,427.8252029983514L776.9039109884643,429.6800645944086L776.3909598541863,433.54611648648824L776.3400366166366,437.50252621664276L774.7462661194336,443.226154059701L773.5981069388863,451.2374082612441L773.7676508459886,453.2074365390845L774.3980358449389,455.213162822507L775.1330949559697,459.191572450035L776.0593030474538,463.05208804105496L776.66154452813,466.9810413278474L777.7200662735927,470.83585955532726L777.8905057505103,472.80579520849915L776.8331760660703,478.8913312435661L776.9348145864114,480.8092365580378L777.4959451938726,482.7078619689537L778.6278112185614,484.1980043111407L780.2649301591446,485.28219968812846L781.0065096660273,486.8434598156382L780.9805749486536,488.82167075931375L781.4773079588304,490.7227921977874L782.9913588126346,494.39295407993814L784.0646373171112,504.56225687348615L783.6350511630453,506.3929285801705L781.3568921365845,509.45533490370053L779.90904605372,510.7796111166472L779.6611478865702,512.3277581881366L780.4219762011676,514.2178190418372L782.7064509015022,517.4162174605299L783.5943617375933,519.1907792764841L784.708862171628,525.1843094694586L786.0999546704593,528.9142099017745L787.4193398978741,530.0658075344336L793.3466661416478,531.9507062813655L795.0038616825323,533.1961814799079L796.289258675893,534.897093214212L796.9924689472555,536.8432231726811L797.0500197994252,539.0924301616424L797.5613310329632,541.1568274037763L800.9583678483386,547.4317534038146L802.3945534682698,549.3996745085424L803.939344942572,550.9231101896121L805.5956510667784,552.0567840243266L811.0320679609176,554.2810799897916L816.7302660794112,556.379799919514L822.7347398828565,559.119249982723L826.6616445066861,560.3608936188739L833.0100369474826,560.9342982645103L835.1670032044713,561.4336036694813L838.9114291774504,562.8980153560542L840.638531124981,562.8677339545975L842.3855924251666,562.0670506400129L843.1678141158695,560.7097991004403L842.9323261952713,556.8213463353204L843.6105785532945,552.6676166419484L844.3348823691858,550.3791986155975L845.4858156443393,548.5637141720781L847.0700455315427,547.3305144133146L848.8399025211006,546.9665553735977L854.4645056322197,548.8227367742611L856.2569439624549,549.8843543409048L857.9448151552701,551.3904959549009L859.6730476967555,551.410889045862L866.0885782469077,545.7462209923506L870.986102199231,542.4097387645033L874.5621252887536,540.2401631158291L882.3017862306015,536.8527802483904L884.0104397893756,535.6050554184594L885.3629109234375,533.991965813887L888.6417585915315,531.4474458470595L890.5278061360109,530.9026971256162L892.7768066467474,530.8316812615158L894.7285188143287,530.2822329959772L896.4412701326942,529.141344762952L898.3923629607257,528.5910021967793L904.6394433303258,528.8377985081988L908.5667923029359,528.1157981462748L910.3681907164082,528.285638118974L913.9307210004381,529.9455069642472L921.7096866088468,532.1224228485371L925.1520502337576,533.8946108146374L928.3241265134752,536.5062316053481L932.6274207620545,540.9714531763138L933.8736319429431,542.5991729492316L935.3947064443273,546.1886090188673L937.0088802288533,551.9706872893212L936.8823687573927,553.9022495614126L936.2178618825242,555.7569282718368L936.418316322638,557.613403441831L937.3517759776205,559.4797642762742L936.9826249365292,560.8216093418741L935.1777583279982,561.6468852011913L934.2894519603592,563.1852355249775L934.38030212686,565.3781841523478L935.4578033527696,566.4664723614396L937.5180609171966,566.3949861602478L938.7208891501041,567.3652292022016L939,569.3816755214466L938.8066417092878,571.3173149034037L937.489756525802,575.2457366981225L937.11217214203,577.4124378784181L936.8681119355178,581.4395878046407L936.4185418500647,594.7124533391398L935.795993475087,602.8293189907226L935.9130976843535,607.2736803195867L935.732281031791,609.4280073990094L934.7656940544939,613.7184606878318L932.926021630964,618.0066687485205L931.4827776596812,620.3470355213249L929.8857144929802,622.4215809826828L928.1940143270654,624.1167720693384L926.5983548821482,624.3221715908649L923.6719542916194,621.8039647653486L921.9890290666854,620.7498263003599L920.1594253086437,620.4732922489138L914.2322378136982,622.0294927224304L910.3327705958391,622.8600124301156L901.3556660249783,623.9777241348866L896.7376289142517,625.1169277032204L890.9912785223419,627.4696267868812L888.7512700968346,628.0876606154943L886.4833796492462,629.3108799806423L882.143035372339,632.733527103388L879.3800095666893,635.6843620805403L876.7133105474036,639.1233657928178L870.6573660894437,648.5081907396998L869.7626018246947,650.3129527961119L868.2708293407932,654.4008479751928L864.034846883123,664.1782618245288L862.1738718218285,667.8443432952454L858.7085478202262,672.8551535643728L856.2042735553541,676.0032095594515L851.6704836703734,682.4376187184653L848.5922856114103,687.3690202585422L847.3339065627697,691.165661237601L846.9631582887405,695.137758150232L845.4687595499945,696.1451172205161L842.6960138304676,696.1166784042916L841.0693807789567,697.1845875161753L840.649525515913,699.2367331148462L840.4866852835898,703.3628783174117L841.1877636121685,707.2272546835611L842.0976377228549,708.8850199051494L843.3999300874716,710.3038361735526L844.3105049807205,711.9613341416398L845.9346151848972,717.6467961789458L848.4864522629914,721.8034844826252L849.4218720557315,723.8435566325952L849.6780766626907,725.8623953175747L849.2415083026262,727.6410911995736L847.9797268183629,729.2409800710857L845.0773504967406,731.7998399250064L844.6908531030986,733.3012224296708L846.5172166369184,738.9214672480257L847.2281773148607,742.8943615681965L846.9349575399951,744.8303985550738L846.0894064275212,746.6288634287548L844.8783239443942,750.3117529250812L844.0827665016127,754.1387708057327L842.7494787433079,758.1016165931533L842.3894658603199,760.0954587239175L842.501507691909,762.011420143348L842.2738194959966,763.9438839515014L841.5638616267174,765.789934860768L841.5396488883434,767.7124657668628L842.2664388503326,769.6534342782816L842.0998472248607,771.4730640754788L841.0361307120374,773.1165686170516L840.4577164225789,774.9011515773709L840.2999950155968,776.8849364101461L839.6529856487768,778.6727302456302L838.6557638159857,780.3126187224534L837.1373206333992,781.2088587872513L827.1596866568152,782.2295462502289L825.1077141521741,782.160405447421L817.1713133081253,780.6040239634194L813.2518853143642,780.0678014204268L807.4419482302656,779.8881211170756L803.5295855296831,779.4567720499863L801.5915408465967,778.9377569093649L790.7194625908965,774.5200304080745L781.7657092625363,770.064310448739L778.1247596332437,768.1281245925429L776.9624140100573,766.6936665209032L775.3728820462884,760.8309347786262L772.481053655345,753.3737437576019L771.5399426715758,749.5147738829601L770.451475513245,748.1313349931615L768.7749685460749,747.2102133493172L767.2209469982909,747.3815823407122L764.0822144397894,749.8650472277241L762.3019308501325,750.9773124329904L760.4346483306426,751.7083751919236L750.8561742357624,753.2259929744241L749.1313809353833,752.6868907927765L747.576739989157,751.4276940065511L746.4870147877496,749.9315001282612L744.1931830842873,744.4733329815881L742.8644669890627,743.6440003306116L738.9590147616614,744.3347978247548L737.1617920436429,745.1129375210276L735.3441819682357,745.4523813479182L725.74467909122,744.8564078946483L723.8468251996251,744.9216976768521L718.1939093837846,746.0464441787863L716.4146938729182,745.7219086933101L713.3910854714704,743.2980843547666L712.2337255317343,741.635122048302L710.6844464336182,740.3140723601437L706.9356836167558,738.2957327231898L705.0046733992467,737.5346815298026L703.5926949537507,736.2079287539291L702.6997479002584,734.3157345725976L701.2886383334571,732.9885670724634L699.496997128676,732.2767243143599L695.6755476128801,731.6274826735398L693.8914369733461,731.0788233988469L690.2407630320399,729.5987422067737L688.1236347426584,729.1686625677166L686.0941137823056,729.2292908770032L684.21731663931,729.7238894900374L682.3208107848259,729.7247851246093L680.3329748809556,729.1243089166301L678.3668465549176,729.0714483603824L674.2655884770675,729.8470428441133L670.2780834951855,730.0687128017607L666.4484298582279,730.8876982052107L660.7062331814309,733.1278176350106L658.9807148162181,734.1063965288076L654.0206966004193,737.4732483962453L650.4108943322299,738.8825227620537L646.4904041707864,739.2006265771206L644.6092889188049,739.6862177190042L640.867222214787,741.2591257715367L634.8895849477394,742.9380328161906L632.8623103308287,743.1500360124137L628.7875899392711,742.9695102744072L625.018046063939,743.8225670784404L619.3138068087878,745.7034654168283L617.4211415105656,745.9087541562667L613.4726635934608,745.4436614663964L609.6160125554002,745.7428668535704L606.066770581368,747.2410543583519L598.9967629497328,751.3294362406596L593.6305915321582,753.5151203950554L589.097478859142,754.0366319112545L587.1498470548568,754.7845295002835L584.2460199497818,757.7977757121971L580.9332442514587,763.3402852636646L579.5468391663662,764.8447884532297L570.943997019242,771.1833554776795L568.2975767247258,774.0770011965142L565.5115766816944,779.6047880156393L561.889559301751,784.540442241474L560.2236087779361,786.045655613234L558.0081245212559,787.3937838733736L556.3422148927948,788.9530481621241L553.7633903694677,792.2796821772572L552.1625559799959,793.7823366183638L548.8037239921978,795.9660199301215L546.9753273689271,796.5382015073401L541.1245243310495,797.2146655311135L539.2989842816282,797.9496677228817L531.0186877393176,803.199981238673L529.2546703576122,803.7127053518861L525.162179868239,803.8652835325483L522.9155450564986,804.1622057968989L520.9482756901953,804.7848881489108L517.4320171785439,806.51858942735L515.3934378962067,807.0309295587649Z" fill="#bdfde2" stroke="#888"></path></g><g class="pack-group" fill="#bdfde2" transform="translate(-12, 24) scale(0.58)"><circle fill="#34fcfc" stroke="#888" stroke-width="2" transform="translate(0,0)" r="466.5747663551402"></circle><circle fill="#83c3fe" stroke="#888" stroke-width="2" transform="translate(-143.16491913817612,0)" r="320.4846135721042"></circle><circle fill="white" stroke="#888" stroke-width="2" pointer-events="none" transform="translate(321.94723039453413,0)" r="141.7023023157462"></circle><circle fill="white" stroke="#888" stroke-width="2" pointer-events="none" transform="translate(223.81769527688527,241.12389250360854)" r="115.69944535039377"></circle><circle fill="white" stroke="#888" stroke-width="2" pointer-events="none" transform="translate(223.81769527688527,-241.12389250360852)" r="115.69944535039377"></circle><circle fill="white" stroke="#888" stroke-width="2" pointer-events="none" transform="translate(57.04529219572612,-352.30740158534843)" r="81.8118623867858"></circle><circle fill="white" stroke="#888" stroke-width="2" pointer-events="none" transform="translate(65.49962104614508,319.08928108606415)" r="57.84972267519689"></circle><circle fill="white" stroke="#888" stroke-width="2" pointer-events="none" transform="translate(-83.4644495052234,-376.55638828727956)" r="57.84972267519689"></circle><circle fill="white" stroke="#888" stroke-width="2" pointer-events="none" transform="translate(-260.32698131099977,0)" r="200.3973177544207"></circle><circle fill="white" stroke="#888" stroke-width="2" pointer-events="none" transform="translate(58.695015438674545,0)" r="115.69944535039377"></circle><circle fill="white" stroke="#888" stroke-width="2" pointer-events="none" transform="translate(-36.35831665774526,176.4643623470805)" r="81.8118623867858"></circle><circle fill="white" stroke="#888" stroke-width="2" pointer-events="none" transform="translate(-36.35831665774526,-176.4643623470805)" r="81.8118623867858"></circle><circle fill="white" stroke="#888" stroke-width="2" pointer-events="none" transform="translate(-162.8387220856136,-242.29526627327627)" r="57.84972267519689"></circle></g><g style="font: 10px sans-serif;" pointer-events="none" text-anchor="middle"><text style="fill-opacity: 0; display: none;" transform="translate(0,0)"></text><text style="fill-opacity: 1; display: inline;" transform="translate(0,0)"></text><text style="fill-opacity: 0; display: none;" transform="translate(-143.16491913817612,0)"></text><text style="fill-opacity: 0; display: none;" transform="translate(321.94723039453413,0)"></text><text style="fill-opacity: 0; display: none;" transform="translate(223.81769527688527,241.12389250360854)"></text><text style="fill-opacity: 0; display: none;" transform="translate(223.81769527688527,-241.12389250360852)"></text><text style="fill-opacity: 0; display: none;" transform="translate(57.04529219572612,-352.30740158534843)"></text><text style="fill-opacity: 0; display: none;" transform="translate(65.49962104614508,319.08928108606415)"></text><text style="fill-opacity: 0; display: none;" transform="translate(-83.4644495052234,-376.55638828727956)"></text><text style="fill-opacity: 0; display: none;" transform="translate(-260.32698131099977,0)"></text><text style="fill-opacity: 0; display: none;" transform="translate(58.695015438674545,0)"></text><text style="fill-opacity: 0; display: none;" transform="translate(-36.35831665774526,176.4643623470805)"></text><text style="fill-opacity: 0; display: none;" transform="translate(-36.35831665774526,-176.4643623470805)"></text><text style="fill-opacity: 0; display: none;" transform="translate(-162.8387220856136,-242.29526627327627)"></text></g></g></svg>