<svg class="chart-group" preserveAspectRatio="xMinYMin" width="655" height="655" viewBox="0,0,655,655"><g class="zoomable-group" transform="translate(327.5, 327.5)"><g class="map-features" opacity="1" transform="translate(-327.5, -327.5) "><path class="land land1" d="M356.69250165910603,563.1526804070463L346.0283404815925,556.756622257355L335.3183190623274,556.6869876654009L328.5089676328523,552.7503578007845L316.18104352265595,554.3701313621214L310.1141025119607,556.7567023969359L302.1570080460772,551.4677171421272L294.07538327003977,549.3405594237402L287.67578959418483,551.7031893134099L283.2526540850354,554.9925619259457L269.4272226468879,556.772122649204L256.56983982014253,551.3875070074673L246.86009335255562,549.3129553297231L237.98251168376578,544.9840330058196L230.74775809278617,545.5557368092004L216.80142491457832,539.8037732388229L205.46723855583969,539.8829173616787L190.31129226317626,544.4943749151535L176.22791484489244,539.8325720942339L173.84214473476413,533.4298377820023L177.07058086575466,523.9787432709772L186.27934933285746,520.6050080387922L188.2786708169201,517.07471880918L185.36369853034785,514.1046490793005L179.81593845741918,512.9280322607501L162.3403321330636,499.82061042722216L162.25233801486638,494.5266656783606L155.60100804704348,492.3726232333738L151.61513898689418,486.8429023805711L147.41797812350933,474.9535021896918L152.81159905543245,472.9827911931734L155.98970429575843,466.9805746667089L159.7378802713249,465.8865882676273L166.18918003810654,468.69346071636664L168.65247897142604,466.5039019348278L164.01887682680126,461.3635928245312L156.4349147366279,459.05379529385027L150.23187930129734,451.87603864469384L146.51088887763035,451.7736133290564L139.81583601537704,455.02361430045676L137.32662546756842,458.2589541401885L129.4131925389911,473.23831560623876L126.95345829484813,474.35327207633054L121.32823524122387,471.39672870699087L117.55982566727243,465.4519429880147L115.43977639831223,458.6329259779841L109.49629821050303,456.31528257756327L97.20883998090198,455.22023297123087L89.31972848297346,453.3399692180965L87.44198205231123,444.93002305640766L84.73880677629154,443.23807349110666L73.95500715631374,441.48851722413474L70.79006125027627,433.8140721980926L73.29928152541743,430.8717852555519L83.00458985332466,430.0664984411096L83.90235325356889,426.79219097841997L75.50070115870744,421.82683758369876L72.0864061569655,417.45209574755063L79.21054784031344,410.4587143658873L82.81042367739974,402.5260940753478L77.16669458442789,397.8015421970904L65.38503746819038,394.8007803477103L59.805333788362304,388.7371709951294L55.80913146856051,388.4305211995825L48.743921491269475,384.14359653113297L39.012256810069175,374.16178545767434L36.94061010943119,369.5620731081581L32.587563577207675,366.30860891869725L35.41347867496302,363.2661146085711L32.367601315109596,355.0427308693079L35.042346377551894,342.98956810933305L29.228630060237037,341.11903660692315L24.815337796410176,331.8968831510174L20.244924501466357,327.0327233481339L16.799282031350685,325.9302349971549L13.401510438765627,319.7958915241734L8.413726597018695,317.81325608046427L2.2737367544323206e-13,303.58936550174167L0.4811313786030951,299.774926780442L8.036197263836357,296.604959144076L11.739023406353226,298.65399990527294L16.60918370852073,295.3317746240273L24.64107479771701,299.71218403596595L29.738201910534826,298.5088042035459L32.89503439562873,294.2941889415333L34.19464357880497,289.0616061429373L41.70027688857931,286.24339332438376L55.10636877400043,290.1693844498095L63.19707823015983,283.5108418521795L66.61633103940244,274.9227857632841L71.87014859713372,272.63093436734925L69.4245694037993,265.5133512632274L72.74390412991283,259.56547787614727L73.53214758361332,254.3048909246836L80.80283581273352,251.82498248645334L81.69246596885819,248.1557562806429L87.42469511309605,244.41455676968417L85.65894723360066,240.63979259010648L88.86312209076618,232.1656388986048L93.29401653104969,229.69132996140797L93.74635984342581,224.54877888853116L96.92615827478994,222.02381506263282L97.62943458245695,213.18649792019733L106.5333821397935,204.91675889049748L111.51891835909237,197.5551301408368L111.12294195208347,194.763417215343L118.12909887606725,179.66467034505695L123.77131824240519,175.75501736468232L122.72140929066768,167.65302087153304L125.4423500640462,162.98267794743515L133.8713899806944,157.03920588041L139.46751838796536,145.97365644446108L143.22341645450342,141.9882954327568L150.57761076910606,141.93824210246476L154.1876923370255,136.88396120772177L159.95570183824998,139.81770007955765L167.93164051835015,138.83573836822325L173.66353059925245,133.82245296079782L174.18671450625948,129.0763904416399L178.94520718888998,127.3390026881043L185.1249614945159,121.26749404161365L185.33121085140897,116.64604048858746L193.85694404886158,117.62176307259506L198.35515491003025,109.25431100530022L201.26843661326734,106.80032925489104L209.3069659870814,110.12138081540706L209.7446521725683,112.77235496722915L220.6678227447021,120.88500458806266L225.1048133477948,117.51675009108294L235.46245042781266,120.04041365810826L244.45762503792753,120.81095055344485L248.42261164289152,124.42305211298572L256.0490209683642,122.51641194768217L270.8705352149161,128.71298754738655L280.022452578768,127.04682088970912L285.0290494853357,122.57505884109014L294.486761105406,122.73609647397734L298.317259352056,124.5934797749187L302.36987902931173,133.0571161089647L311.28160692473716,137.1540905241527L317.5187398324342,146.39811195245875L329.1293034915343,144.24731198613517L333.9426403830057,138.80537574958907L337.48625822410804,131.11944679614862L343.2417493551486,128.30760120021478L365.4448560078158,124.14580834156095L372.4804787009948,124.85779613368959L383.07380465742585,121.28114927635306L396.16364729588713,120.28675015540011L401.4459664666938,118.34565913953429L402.5471361091704,114.22779446863387L406.80243938765784,108.72995488543347L410.79273670147995,99.79658812404159L423.4308947383579,95.96699094524593L430.2758852752711,91.84731959295459L440.760865638121,92.25630845023625L450.9828818781541,97.67665011018198L454.9914215657766,103.12127576034163L458.09733493066756,104.75378934914988L459.36936459773733,110.00759260766426L466.0484119146736,116.95570962919737L467.939462096386,125.8932360727149L476.7728466411297,143.21510807282175L476.629493245953,147.0557972298111L479.5175522956256,153.5789623947303L486.68224578964464,159.2996997235423L488.96738693354973,165.70641559324395L494.4739566446531,168.29781893068866L501.41149258202086,184.85893681754533L509.5082073177057,189.32841598107007L513.8029630581427,201.21032678813845L521.157601494175,208.73610848147382L530.573335495556,213.65449690200876L534.5806419378841,218.91669764352082L537.3914400712356,233.75740474914255L540.738382098293,237.98473167748853L546.8865298363737,253.3417532508647L546.1349827127419,265.4213222545359L548.2884480276896,270.35860118875735L547.8658480088795,276.9963264186681L545.5204384860297,280.1424884464059L545.6567375691034,285.5643957537304L540.1487907030489,294.5351776569323L541.9973471745091,299.6202865238474L539.7927003129796,314.67148459211967L542.6465210973406,329.6430240946802L542.3773551512411,336.53794321945134L544.9182131691,339.47542737767617L547.0128396633445,351.82984468140603L544.2165057820453,356.184515296256L549.4055635289949,369.598205762426L555.5102855635414,373.0390758048261L556.388714651918,377.36886493759084L562.1031805874632,385.0565095347156L576.7157407928814,390.8651273647056L587.7062791410829,392.0512599190988L589.1384333265346,383.9029855670815L592.1988805791673,381.4981282844592L599.7665552858689,384.55344750542736L610.1722158735383,376.7199757331173L620.0247534713599,370.61823049049326L626.7774263877329,368.64897702239523L635.2478855633215,368.4258495681779L643.1259448452058,371.1398669955697L651.663679748217,378.4399055351405L653.7378970431525,384.936983042724L655.0000000000002,395.7231008807594L653.7697320296782,405.4698574634922L652.9180881754965,425.12776568267145L649.8972408047468,432.72891862802135L646.5243908518055,435.4481317422433L642.126906065798,432.79531232544105L625.6604836884433,435.9938155857726L618.5611080756903,438.9031188328918L611.7078885152364,445.76216844129704L607.4189808385047,452.3450833664192L601.5993413472875,465.88732382308626L592.1624731469328,479.47035426619186L590.8593576229771,484.96190946575916L586.860067320707,486.3496691189812L586.9464870713111,493.36018747862L592.7880008387738,506.30762261350174L589.3264221700733,511.50755384322747L591.2048198132877,518.2967961880686L588.0500307853579,528.9055969348356L587.6049963932342,538.1897954009064L585.1633811362983,544.3942499931236L575.6695949779964,545.6367208768006L559.2231549861183,543.334072289661L542.8597864137987,535.8225051898644L538.2649493823296,522.9117168156536L536.3773745667768,521.2672449447455L530.4587715056555,524.4096760678049L523.7775878700852,525.4579762534668L518.2122952473853,518.7856509212306L513.0218444111076,520.0314391165894L499.74662508463075,520.2252419697579L488.04152127538214,510.81634805001977L480.09867385999723,508.6793227616363L464.9301332686855,509.9079679058459L456.2610370293105,514.5029567541851L442.9633927955258,518.2695821186207L432.0513655062223,520.2350448437955L425.33416769403675,520.2441683435791L417.9112367361131,524.0938231630334L409.6182016886826,526.4947499970922L404.2344927352358,533.595651936369L396.3557506783734,540.0691262915361L391.93265876837313,547.2752573987036L382.74060080013624,555.3351892753744L376.17846344776945,556.6070475436873L370.3254283299825,560.3756455337752Z" fill="#bdfde2" stroke="#777"></path></g><g class="pack-group" fill="#bdfde2" transform="translate(-12, 14) scale(0.58)"><circle fill="#34fcfc" stroke="#888" stroke-width="2" transform="translate(0,0)" r="324.6060382916053"></circle><circle fill="#83c3fe" stroke="#888" stroke-width="2" transform="translate(-99.23481670246105,0)" r="222.4772598807495"></circle><circle fill="white" stroke="#888" stroke-width="2" pointer-events="none" transform="translate(223.9242407349468,0)" r="97.78783584826368"></circle><circle fill="white" stroke="#888" stroke-width="2" pointer-events="none" transform="translate(156.05495356870983,167.28155592668907)" r="79.84343362642902"></circle><circle fill="white" stroke="#888" stroke-width="2" pointer-events="none" transform="translate(156.05495356870983,-167.2815559266891)" r="79.84343362642902"></circle><circle fill="white" stroke="#888" stroke-width="2" pointer-events="none" transform="translate(40.43352624739947,-244.78637663439108)" r="56.457833350465975"></circle><circle fill="white" stroke="#888" stroke-width="2" pointer-events="none" transform="translate(46.2117775890996,221.86850018680843)" r="39.92171681321451"></circle><circle fill="white" stroke="#888" stroke-width="2" pointer-events="none" transform="translate(-57.34246214873451,-261.9644513977088)" r="39.92171681321451"></circle><circle fill="white" stroke="#888" stroke-width="2" pointer-events="none" transform="translate(-180.5252311830874,0)" r="138.29288369172843"></circle><circle fill="white" stroke="#888" stroke-width="2" pointer-events="none" transform="translate(40.505047843464695,0)" r="79.84343362642902"></circle><circle fill="white" stroke="#888" stroke-width="2" pointer-events="none" transform="translate(-25.47296436674992,122.56514020527555)" r="56.457833350465975"></circle><circle fill="white" stroke="#888" stroke-width="2" pointer-events="none" transform="translate(-25.47296436674992,-122.56514020527555)" r="56.457833350465975"></circle><circle fill="white" stroke="#888" stroke-width="2" pointer-events="none" transform="translate(-113.59128520648812,-168.28594172712135)" r="39.92171681321451"></circle></g><g style="font: 10px sans-serif;" pointer-events="none" text-anchor="middle"><text style="fill-opacity: 0; display: none;" transform="translate(0,0)"></text><text style="fill-opacity: 1; display: inline;" transform="translate(0,0)"></text><text style="fill-opacity: 0; display: none;" transform="translate(-99.23481670246105,0)"></text><text style="fill-opacity: 0; display: none;" transform="translate(223.9242407349468,0)"></text><text style="fill-opacity: 0; display: none;" transform="translate(156.05495356870983,167.28155592668907)"></text><text style="fill-opacity: 0; display: none;" transform="translate(156.05495356870983,-167.2815559266891)"></text><text style="fill-opacity: 0; display: none;" transform="translate(40.43352624739947,-244.78637663439108)"></text><text style="fill-opacity: 0; display: none;" transform="translate(46.2117775890996,221.86850018680843)"></text><text style="fill-opacity: 0; display: none;" transform="translate(-57.34246214873451,-261.9644513977088)"></text><text style="fill-opacity: 0; display: none;" transform="translate(-180.5252311830874,0)"></text><text style="fill-opacity: 0; display: none;" transform="translate(40.505047843464695,0)"></text><text style="fill-opacity: 0; display: none;" transform="translate(-25.47296436674992,122.56514020527555)"></text><text style="fill-opacity: 0; display: none;" transform="translate(-25.47296436674992,-122.56514020527555)"></text><text style="fill-opacity: 0; display: none;" transform="translate(-113.59128520648812,-168.28594172712135)"></text></g></g></svg>