<svg version="1.1" x="0px" y="0px"
	 width="512px" height="512px" viewBox="0 0 512 512" enable-background="new 0 0 512 512" xml:space="preserve">
<path d="M256,0C114.609,0,0,114.609,0,256s114.609,256,256,256s256-114.609,256-256S397.391,0,256,0z M256,472
	c-119.297,0-216-96.703-216-216S136.703,40,256,40s216,96.703,216,216S375.297,472,256,472z"/>
<g>
	<rect x="144" y="144" fill-rule="evenodd" clip-rule="evenodd" width="64" height="64"/>
	<rect x="224" y="144" fill-rule="evenodd" clip-rule="evenodd" width="64" height="64"/>
	<rect x="304" y="144" fill-rule="evenodd" clip-rule="evenodd" width="64" height="64"/>
	<rect x="304" y="224" fill-rule="evenodd" clip-rule="evenodd" width="64" height="64"/>
	<rect x="304" y="304" fill-rule="evenodd" clip-rule="evenodd" width="64" height="64"/>
	<rect x="224" y="304" fill-rule="evenodd" clip-rule="evenodd" width="64" height="64"/>
	<rect x="144" y="304" fill-rule="evenodd" clip-rule="evenodd" width="64" height="64"/>
	<rect x="144" y="224" fill-rule="evenodd" clip-rule="evenodd" width="64" height="64"/>
	<rect x="224" y="224" fill-rule="evenodd" clip-rule="evenodd" width="64" height="64"/>
</g>
</svg>
