<svg width="690" height="400" viewBox="0 0 690 400" fill="none" xmlns="http://www.w3.org/2000/svg">
<g clip-path="url(#clip0)">
<rect width="690" height="400" fill="none"/>
<path d="M13.5977 53.2793C13.5977 50.7337 14.8704 49.1842 17.416 48.6309C20.0169 48.0221 26.7682 47.7178 37.6699 47.7178L44.7256 47.6348C53.8011 47.6348 61.2441 48.6585 67.0547 50.7061C72.9206 52.7536 78.1777 56.1846 82.8262 60.999C87.4746 65.8135 91.21 71.873 94.0322 79.1777C96.9098 86.4271 98.3486 94.4512 98.3486 103.25V107.483C98.3486 116.338 96.8822 124.721 93.9492 132.635C91.0163 140.548 86.9212 147.244 81.6641 152.723C76.4069 158.146 70.5964 161.826 64.2324 163.763C57.9238 165.7 50.0934 166.668 40.7412 166.668H37.2549L35.5117 166.585H32.1084C23.6969 166.585 18.3291 166.087 16.0049 165.091C14.4001 164.371 13.5977 162.822 13.5977 160.442V158.699L14.0127 147.493L14.1787 143.675L14.5107 128.567C14.5107 127.295 14.5107 126.022 14.5107 124.749L14.5938 119.021V90.3838L14.5107 84.7393L13.7637 60.501L13.5977 56.8486V53.2793ZM46.3857 60.1689H41.2393C33.7132 60.1689 29.6182 61.2757 28.9541 63.4893C28.8434 63.8766 28.7881 65.5645 28.7881 68.5527L28.9541 73.8652V76.6045L29.1201 82V90.1348L29.2031 92.874V117.61L29.1201 120.35V123.089L29.0371 125.828C29.0371 126.714 29.0371 127.599 29.0371 128.484L28.9541 129.896C28.9541 130.781 28.9541 131.666 28.9541 132.552L28.7051 140.77C28.7051 141.655 28.7051 142.54 28.7051 143.426L28.5391 148.738C28.5391 152.059 31.9977 153.719 38.915 153.719H45.2236C56.734 153.719 65.9202 149.402 72.7822 140.77C75.9919 136.674 78.4544 131.694 80.1699 125.828C81.8854 119.962 82.7432 114.235 82.7432 108.646V102.42C82.7432 102.254 82.7432 102.088 82.7432 101.922C82.7432 96.056 81.7747 90.4391 79.8379 85.0713C73.972 68.4697 62.8213 60.1689 46.3857 60.1689ZM197.759 160.359C197.759 163.237 195.213 164.676 190.122 164.676C187.576 164.676 185.28 162.85 183.232 159.197C181.185 155.49 179.027 150.62 176.758 144.588C174.489 138.556 172.856 135.125 171.86 134.295C170.145 132.856 163.034 132.137 150.527 132.137H146.626L144.717 132.22C143.444 132.275 141.175 132.303 137.91 132.303C134.645 132.303 132.349 132.856 131.021 133.963C129.748 135.014 127.839 138.999 125.293 145.916C122.747 152.833 120.534 157.731 118.652 160.608C116.826 163.486 114.308 164.925 111.099 164.925C107.889 164.925 106.284 164.122 106.284 162.518V161.023C106.284 155.6 118.293 121.097 142.31 57.5127C144.136 52.7536 145.602 49.7376 146.709 48.4648C147.816 47.1921 149.725 46.5557 152.437 46.5557C155.148 46.5557 157.085 47.2197 158.247 48.5479C159.465 49.8206 160.737 52.2555 162.065 55.8525C172.303 82.9684 183.343 114.677 195.186 150.979C196.901 156.237 197.759 159.363 197.759 160.359ZM137.578 120.433H142.061L142.725 120.35L151.357 120.267C162.093 120.267 167.461 119.603 167.461 118.274V117.776C167.461 117.002 165.911 111.993 162.812 102.752C159.769 93.5104 157.168 85.2926 155.01 78.0986C152.907 70.8493 151.717 67.2246 151.44 67.2246C151.219 67.2246 150.666 68.7464 149.78 71.79C148.895 74.8337 148.148 77.2132 147.539 78.9287C146.986 80.5889 146.515 82.083 146.128 83.4111C145.796 84.7393 145.104 86.9805 144.053 90.1348C143.001 93.2337 142.116 96.0837 141.396 98.6846C140.677 101.23 139.404 105.076 137.578 110.223C135.807 115.369 134.922 118.136 134.922 118.523L135.005 119.021V119.52C135.005 120.128 135.863 120.433 137.578 120.433ZM197.062 52.3662C197.062 50.2633 198.666 48.9629 201.876 48.4648C205.086 47.9668 216.873 47.7178 237.237 47.7178L257.325 47.6348H259.234C265.211 47.6348 269.306 47.9945 271.52 48.7139C273.733 49.4333 274.84 50.7337 274.84 52.6152V54.3584C274.84 57.0146 273.927 58.7025 272.101 59.4219C271.879 59.5326 267.507 60.0029 258.985 60.833C250.408 61.6631 245.621 63.2402 244.625 65.5645C243.629 67.8887 243.131 84.3242 243.131 114.871C243.131 145.418 243.02 161.494 242.799 163.099C242.467 165.589 240.419 166.834 236.656 166.834H234.83C231.067 166.834 229.047 165.561 228.771 163.016C228.494 160.47 228.355 144.09 228.355 113.875C228.355 83.6602 227.802 67.446 226.695 65.2324C225.589 63.0189 221.023 61.6354 212.999 61.082C205.03 60.5286 200.382 59.9199 199.054 59.2559C197.726 58.5918 197.062 56.8486 197.062 54.0264V52.3662ZM364.04 160.359C364.04 163.237 361.494 164.676 356.403 164.676C353.858 164.676 351.561 162.85 349.514 159.197C347.466 155.49 345.308 150.62 343.039 144.588C340.77 138.556 339.138 135.125 338.142 134.295C336.426 132.856 329.315 132.137 316.809 132.137H312.907L310.998 132.22C309.725 132.275 307.456 132.303 304.191 132.303C300.926 132.303 298.63 132.856 297.302 133.963C296.029 135.014 294.12 138.999 291.574 145.916C289.029 152.833 286.815 157.731 284.934 160.608C283.107 163.486 280.59 164.925 277.38 164.925C274.17 164.925 272.565 164.122 272.565 162.518V161.023C272.565 155.6 284.574 121.097 308.591 57.5127C310.417 52.7536 311.883 49.7376 312.99 48.4648C314.097 47.1921 316.006 46.5557 318.718 46.5557C321.429 46.5557 323.366 47.2197 324.528 48.5479C325.746 49.8206 327.019 52.2555 328.347 55.8525C338.584 82.9684 349.624 114.677 361.467 150.979C363.182 156.237 364.04 159.363 364.04 160.359ZM303.859 120.433H308.342L309.006 120.35L317.639 120.267C328.374 120.267 333.742 119.603 333.742 118.274V117.776C333.742 117.002 332.193 111.993 329.094 102.752C326.05 93.5104 323.449 85.2926 321.291 78.0986C319.188 70.8493 317.998 67.2246 317.722 67.2246C317.5 67.2246 316.947 68.7464 316.062 71.79C315.176 74.8337 314.429 77.2132 313.82 78.9287C313.267 80.5889 312.797 82.083 312.409 83.4111C312.077 84.7393 311.385 86.9805 310.334 90.1348C309.283 93.2337 308.397 96.0837 307.678 98.6846C306.958 101.23 305.686 105.076 303.859 110.223C302.089 115.369 301.203 118.136 301.203 118.523L301.286 119.021V119.52C301.286 120.128 302.144 120.433 303.859 120.433ZM361.517 48.9629C367.05 48.9629 370.924 51.1488 373.138 55.5205C375.351 59.8369 381.355 75.4977 391.15 102.503C400.945 129.508 405.926 143.011 406.092 143.011C406.313 143.011 411.404 129.48 421.365 102.42C431.326 75.304 436.943 60.3073 438.216 57.4297C439.544 54.5521 440.9 52.4492 442.283 51.1211C443.722 49.7376 445.88 49.0459 448.758 49.0459C451.691 49.0459 453.157 49.959 453.157 51.7852C453.157 52.7812 450.75 59.4772 445.936 71.873C441.121 84.2135 434.619 102.309 426.429 126.16C418.239 150.011 413.009 162.96 410.74 165.008C409.467 166.17 407.337 166.751 404.349 166.751C401.36 166.751 398.925 164.703 397.044 160.608C395.218 156.513 392.617 149.734 389.241 140.271C385.921 130.753 382.933 122.369 380.276 115.12L375.13 100.843C373.746 96.9137 372.916 94.5342 372.64 93.7041L363.924 70.0469C359.497 58.9792 357.283 52.5876 357.283 50.8721C357.283 49.5993 358.694 48.9629 361.517 48.9629ZM462.919 61.6631V58.8408C462.919 53.6943 463.943 50.2633 465.99 48.5479C466.765 47.8838 469.172 47.5518 473.212 47.5518H475.868C478.69 47.5518 480.461 48.0775 481.181 49.1289C482.619 51.2871 483.339 54.4691 483.339 58.6748V60.0859C483.339 61.5247 482.868 64.5407 481.928 69.1338C480.987 73.6715 480.517 77.988 480.517 82.083V96.9414L480.434 99.8467C480.434 99.8467 480.434 109.116 480.434 127.654L480.517 129.065V131.971C480.517 135.734 480.959 139.912 481.845 144.505C482.785 149.043 483.256 153.331 483.256 157.371C483.256 161.355 482.287 164.15 480.351 165.755C479.576 166.419 477.169 166.751 473.129 166.751H470.473C467.706 166.751 465.935 166.198 465.16 165.091C463.666 162.933 462.919 159.778 462.919 155.628V154.134C462.919 153.248 463.362 150.26 464.247 145.169C465.188 140.078 465.658 134.572 465.658 128.65V83.9922C465.658 78.4583 465.188 73.8099 464.247 70.0469C463.362 66.2285 462.919 63.4339 462.919 61.6631ZM497.002 161.189V158.782C497.002 155.794 507.24 139.441 527.715 109.725C548.245 80.0078 558.511 64.7344 558.511 63.9043C558.511 62.1888 557.542 61.1097 555.605 60.667C553.724 60.1689 545.312 59.9199 530.371 59.9199C515.43 59.9199 506.465 59.5326 503.477 58.7578C500.488 57.9831 498.994 55.7142 498.994 51.9512C498.994 49.2949 500.267 47.9668 502.812 47.9668H505.386L508.125 48.0498L513.604 48.2988C515.43 48.3542 518.252 48.3818 522.07 48.3818L542.324 48.2988C561.969 48.2988 572.428 48.4095 573.701 48.6309C577.188 49.2396 578.931 51.0381 578.931 54.0264C578.931 56.9593 577.713 60.4733 575.278 64.5684C572.899 68.6081 562.661 83.5218 544.565 109.31C526.47 135.042 517.422 148.877 517.422 150.813C517.422 153.138 526.608 154.3 544.98 154.3C563.353 154.3 573.95 154.687 576.772 155.462C579.595 156.237 581.006 158.284 581.006 161.604C581.006 164.869 579.788 166.502 577.354 166.502H574.78L555.107 166.004L534.854 166.087C516.37 166.087 505.911 165.949 503.477 165.672C499.16 165.174 497.002 163.68 497.002 161.189Z" fill="black"/>
<path d="M33.6025 220.303H47.2988C64.2878 220.303 75.1341 225.947 79.8379 237.236C81.6641 241.608 82.5771 246.589 82.5771 252.178C82.5771 257.767 81.3597 262.803 78.9248 267.285C76.5452 271.712 73.3079 275.558 69.2129 278.823C65.1178 282.033 63.0703 284.44 63.0703 286.045C63.0703 286.211 67.0824 294.18 75.1064 309.951L81.5811 322.983C82.5218 324.865 83.9329 327.493 85.8145 330.869C87.7513 334.189 88.7197 336.016 88.7197 336.348C88.7197 337.62 86.6999 338.257 82.6602 338.257C78.6758 338.257 75.5215 336.707 73.1973 333.608C73.0866 333.442 70.0983 327.853 64.2324 316.841C58.4219 305.828 53.5521 298.413 49.623 294.595C45.694 290.776 40.9072 288.867 35.2627 288.867C31.9424 288.867 29.8949 289.642 29.1201 291.191C28.4007 292.741 28.041 296.504 28.041 302.48L28.124 304.971C28.1794 306.631 28.207 308.485 28.207 310.532V317.256C28.207 326.387 27.875 332.253 27.2109 334.854C26.5469 337.454 24.859 338.755 22.1475 338.755C17.167 338.755 14.3724 337.565 13.7637 335.186C13.4316 333.857 13.2656 328.158 13.2656 318.086L12.6016 286.543L12.3525 279.321C12.3525 278.768 12.4632 276.361 12.6846 272.1L13.3486 242.964C13.3486 230.845 13.985 224.038 15.2578 222.544C16.5859 221.05 22.7008 220.303 33.6025 220.303ZM46.8838 234.58H37.6699C31.14 234.58 27.3493 235.465 26.2979 237.236C25.6338 238.398 25.3018 244.32 25.3018 255V261.392C25.3018 267.534 25.4401 270.938 25.7168 271.602C26.4362 273.262 27.9027 274.092 30.1162 274.092H37.0889L37.8359 274.009L43.6465 273.76C44.1999 273.704 44.7533 273.677 45.3066 273.677C53.2201 273.677 59.4456 271.768 63.9834 267.949C68.5212 264.076 70.79 259.344 70.79 253.755V252.178C70.79 246.921 68.6872 242.687 64.4814 239.478C60.2757 236.213 54.4098 234.58 46.8838 234.58ZM103.213 282.891V276.831C103.213 268.475 104.707 260.368 107.695 252.51C110.684 244.541 114.281 238.122 118.486 233.252C127.285 223.18 138.159 218.145 151.108 218.145H152.852C166.41 218.145 177.477 223.651 186.055 234.663C190.205 239.976 193.47 246.395 195.85 253.921C198.229 261.392 199.419 269.167 199.419 277.246V281.23C199.419 281.396 199.419 281.562 199.419 281.729C199.419 289.753 198.174 297.666 195.684 305.469C190.758 321.13 182.07 331.976 169.619 338.008C164.251 340.609 158.275 341.909 151.689 341.909C137.523 341.909 126.234 336.901 117.822 326.885C112.952 321.074 109.3 314.323 106.865 306.631C104.43 298.939 103.213 291.025 103.213 282.891ZM149.946 329.292H152.437C161.567 329.292 169.093 324.644 175.015 315.347C180.881 306.05 183.813 294.29 183.813 280.068V278.491C183.813 263.716 180.632 251.873 174.268 242.964C171.556 239.201 168.319 236.213 164.556 233.999C160.848 231.73 156.891 230.596 152.686 230.596H151.44C141.812 230.596 133.953 235.106 127.866 244.126C125.321 247.889 123.162 252.814 121.392 258.901C119.621 264.933 118.735 270.882 118.735 276.748V283.057C118.735 283.278 118.735 283.472 118.735 283.638C118.735 289.725 119.538 295.563 121.143 301.152C124.463 312.829 129.858 320.936 137.329 325.474C141.59 328.019 145.796 329.292 149.946 329.292ZM221.134 335.435C217.371 335.435 215.489 333 215.489 328.13V324.395C215.489 321.462 215.738 315.181 216.236 305.552C216.734 295.868 217.343 278.132 218.062 252.344L218.478 234.995L218.893 230.845C219.667 226.252 222.656 223.955 227.857 223.955C232.395 223.955 237.542 229.876 243.297 241.719C245.732 246.589 250.519 257.573 257.657 274.673C264.796 291.772 268.614 300.848 269.112 301.899L270.855 304.888C272.239 304.888 277.164 294.871 285.631 274.839C294.098 254.751 299.521 242.66 301.9 238.564C307.434 228.991 312 224.204 315.597 224.204C320.522 224.204 323.344 226.777 324.063 231.924L324.312 236.074L324.479 240.308L324.562 244.624C324.838 254.474 325.807 280.124 327.467 321.572L327.55 325.391V329.043C327.55 331.755 327.024 333.636 325.973 334.688C324.977 335.684 323.482 336.182 321.49 336.182C319.553 336.182 318.004 335.324 316.842 333.608C315.735 331.893 314.767 328.324 313.937 322.9C313.106 317.422 312.387 304.307 311.778 283.555C311.225 262.747 310.284 252.344 308.956 252.344C307.683 252.344 302.647 263.19 293.849 284.883C285.05 306.52 279.682 319.248 277.745 323.066C275.808 326.829 272.986 328.711 269.278 328.711C267.12 328.711 264.741 325.833 262.14 320.078L258.819 312.109C255.72 304.583 253.507 299.271 252.179 296.172L247.281 284.219C238.704 263.633 233.889 253.34 232.838 253.34C231.344 253.34 230.209 263.716 229.435 284.468C228.66 305.164 227.94 317.837 227.276 322.485C226.059 331.118 224.011 335.435 221.134 335.435ZM383.713 188.345H385.041C387.919 188.345 390.271 189.175 392.097 190.835C403.662 201.46 409.445 208.101 409.445 210.757C409.445 211.31 407.979 211.587 405.046 211.587H404.382C401.283 211.587 399.014 211.089 397.575 210.093C396.136 209.097 393.618 206.8 390.021 203.203C386.424 199.606 384.349 197.808 383.796 197.808C383.298 197.808 380.199 200.658 374.499 206.357C371.013 209.844 367.388 211.587 363.625 211.587H361.052C359.502 211.587 358.728 211.338 358.728 210.84C358.728 208.128 364.593 201.405 376.325 190.669C378.041 189.119 380.503 188.345 383.713 188.345ZM424.138 334.272C424.138 336.486 422.505 337.593 419.24 337.593C416.031 337.593 413.596 336.126 411.936 333.193C410.331 330.26 408.256 325.418 405.71 318.667C403.164 311.86 401.836 308.402 401.726 308.291C400.176 306.742 393.812 305.967 382.634 305.967H379.147L377.404 306.05C376.187 306.105 374.195 306.133 371.428 306.133C368.661 306.133 366.696 306.742 365.534 307.959C364.372 309.121 362.657 313.105 360.388 319.912C358.174 326.663 356.459 331.09 355.241 333.193C353.304 336.569 350.786 338.257 347.688 338.257H346.193C344.035 338.257 342.956 337.261 342.956 335.269C342.956 334.438 348.02 317.007 358.146 282.974C368.329 248.885 374.167 229.821 375.661 225.781C377.155 221.686 379.95 219.639 384.045 219.639H385.705C388.859 219.639 391.405 222.323 393.342 227.69C393.452 227.967 396.219 237.236 401.643 255.498C407.066 273.704 412.157 290.666 416.916 306.382C421.73 322.098 424.138 331.395 424.138 334.272ZM372.258 294.512H373.503L374.084 294.429H383.796C393.314 294.429 398.073 293.958 398.073 293.018V291.855C398.073 291.579 395.666 282.835 390.852 265.625C386.092 248.415 383.63 239.81 383.464 239.81C383.298 239.81 380.725 248.249 375.744 265.127C370.764 282.005 368.273 291.247 368.273 292.852V293.35C368.273 294.124 369.602 294.512 372.258 294.512ZM441.702 334.272C441.702 332.889 441.757 330.731 441.868 327.798L442.283 317.671L442.2 310.698C442.2 310.698 442.2 301.318 442.2 282.559L442.283 278.989V271.934C442.283 242.383 442.366 227.275 442.532 226.611C443.196 224.066 445.161 222.793 448.426 222.793C453.019 222.793 457.308 225.394 461.292 230.596C463.727 233.75 473.383 247.917 490.262 273.096C507.14 298.219 515.966 310.781 516.741 310.781C517.516 310.781 517.903 299.243 517.903 276.167C517.903 253.091 518.235 238.315 518.899 231.841C519.619 225.366 521.417 222.129 524.295 222.129H527.2C529.912 222.129 531.268 223.872 531.268 227.358V230.513L530.77 237.07L530.604 243.877C530.548 246.201 530.521 250.296 530.521 256.162V279.072L530.438 289.614C530.438 315.015 530.327 329.375 530.105 332.695C529.884 336.016 528.611 337.676 526.287 337.676C521.085 337.676 516.686 335.49 513.089 331.118C509.492 326.691 499.282 311.694 482.459 286.128C465.691 260.562 456.837 247.778 455.896 247.778C455.288 247.778 454.983 260.645 454.983 286.377C454.983 312.109 454.513 327.272 453.572 331.865C452.687 336.403 450.418 338.672 446.766 338.672C443.39 338.672 441.702 337.205 441.702 334.272ZM549.911 234.663V231.841C549.911 226.694 550.935 223.263 552.982 221.548C553.757 220.884 556.164 220.552 560.204 220.552H562.86C565.683 220.552 567.453 221.077 568.173 222.129C569.612 224.287 570.331 227.469 570.331 231.675V233.086C570.331 234.525 569.861 237.541 568.92 242.134C567.979 246.672 567.509 250.988 567.509 255.083V269.941L567.426 272.847C567.426 272.847 567.426 282.116 567.426 300.654L567.509 302.065V304.971C567.509 308.734 567.951 312.912 568.837 317.505C569.778 322.043 570.248 326.331 570.248 330.371C570.248 334.355 569.28 337.15 567.343 338.755C566.568 339.419 564.161 339.751 560.121 339.751H557.465C554.698 339.751 552.927 339.198 552.152 338.091C550.658 335.933 549.911 332.778 549.911 328.628V327.134C549.911 326.248 550.354 323.26 551.239 318.169C552.18 313.078 552.65 307.572 552.65 301.65V256.992C552.65 251.458 552.18 246.81 551.239 243.047C550.354 239.229 549.911 236.434 549.911 234.663ZM676.05 333.359C676.05 336.237 673.504 337.676 668.413 337.676C665.868 337.676 663.571 335.85 661.523 332.197C659.476 328.49 657.318 323.62 655.049 317.588C652.78 311.556 651.147 308.125 650.151 307.295C648.436 305.856 641.325 305.137 628.818 305.137H624.917L623.008 305.22C621.735 305.275 619.466 305.303 616.201 305.303C612.936 305.303 610.64 305.856 609.312 306.963C608.039 308.014 606.13 311.999 603.584 318.916C601.038 325.833 598.825 330.731 596.943 333.608C595.117 336.486 592.599 337.925 589.39 337.925C586.18 337.925 584.575 337.122 584.575 335.518V334.023C584.575 328.6 596.584 294.097 620.601 230.513C622.427 225.754 623.893 222.738 625 221.465C626.107 220.192 628.016 219.556 630.728 219.556C633.439 219.556 635.376 220.22 636.538 221.548C637.756 222.821 639.028 225.256 640.356 228.853C650.594 255.968 661.634 287.677 673.477 323.979C675.192 329.237 676.05 332.363 676.05 333.359ZM615.869 293.433H620.352L621.016 293.35L629.648 293.267C640.384 293.267 645.752 292.603 645.752 291.274V290.776C645.752 290.002 644.202 284.993 641.104 275.752C638.06 266.51 635.459 258.293 633.301 251.099C631.198 243.849 630.008 240.225 629.731 240.225C629.51 240.225 628.957 241.746 628.071 244.79C627.186 247.834 626.439 250.213 625.83 251.929C625.277 253.589 624.806 255.083 624.419 256.411C624.087 257.739 623.395 259.98 622.344 263.135C621.292 266.234 620.407 269.084 619.688 271.685C618.968 274.23 617.695 278.076 615.869 283.223C614.098 288.369 613.213 291.136 613.213 291.523L613.296 292.021V292.52C613.296 293.128 614.154 293.433 615.869 293.433Z" fill="black"/>
</g>
<defs>
<clipPath id="clip0">
<rect width="690" height="400" fill="none"/>
</clipPath>
</defs>
</svg>
