<svg width="690" height="400" viewBox="0 0 690 400" fill="none" xmlns="http://www.w3.org/2000/svg">
<g clip-path="url(#clip0)">
<rect width="690" height="400" fill="none"/>
<path d="M37.62 69.08C42.2667 65 47.65 62.3367 53.77 61.09C59.89 59.8433 66.0667 59.7867 72.3 60.92C78.5333 62.0533 84.54 64.2067 90.32 67.38C96.1 70.5533 100.917 74.52 104.77 79.28C108.737 83.9267 111.457 89.2533 112.93 95.26C114.517 101.153 114.177 107.387 111.91 113.96C109.87 120.08 106.753 125.803 102.56 131.13C98.3667 136.457 93.4367 141.273 87.77 145.58C82.2167 149.773 76.0967 153.457 69.41 156.63C62.7233 159.803 55.8667 162.353 48.84 164.28C41.9267 166.093 35.0133 167.283 28.1 167.85C21.1867 168.53 14.7267 168.417 8.72 167.51C7.47333 167.283 6.68 166.773 6.34 165.98C6 165.073 5.94333 164.223 6.17 163.43C6.39667 162.523 6.90667 161.73 7.7 161.05C8.49333 160.37 9.51333 160.087 10.76 160.2C10.8733 160.313 11.1567 160.37 11.61 160.37C14.5567 143.143 17.8433 126.087 21.47 109.2C25.21 92.2 28.8367 75.0867 32.35 57.86C32.5767 56.7267 33.1433 55.99 34.05 55.65C34.9567 55.1967 35.8633 55.0833 36.77 55.31C37.6767 55.5367 38.4133 56.0467 38.98 56.84C39.66 57.6333 39.8867 58.5967 39.66 59.73C39.32 61.3167 38.98 62.9033 38.64 64.49C38.3 66.0767 37.96 67.6067 37.62 69.08ZM100.18 121.61C102.56 117.757 104.147 113.677 104.94 109.37C105.733 105.063 105.733 100.87 104.94 96.79C104.26 92.71 102.673 88.8567 100.18 85.23C97.8 81.6033 94.57 78.5433 90.49 76.05C85.39 73.1033 79.7233 70.95 73.49 69.59C67.37 68.1167 61.5333 67.89 55.98 68.91C50.4267 69.93 45.4967 72.3667 41.19 76.22C36.8833 79.96 34.05 85.5133 32.69 92.88C30.31 104.213 27.93 115.547 25.55 126.88C23.17 138.1 20.96 149.433 18.92 160.88C26.1733 160.993 33.8233 160.143 41.87 158.33C49.9167 156.403 57.6233 153.74 64.99 150.34C72.47 146.827 79.27 142.633 85.39 137.76C91.6233 132.887 96.5533 127.503 100.18 121.61ZM190.053 48C193.906 48 196.683 49.9833 198.383 53.95C200.083 57.9167 200.99 63.0733 201.103 69.42C201.216 75.7667 200.706 82.9633 199.573 91.01C198.44 98.9433 197.08 106.877 195.493 114.81C195.946 115.263 196.286 115.83 196.513 116.51C196.853 117.077 196.966 117.7 196.853 118.38C196.853 119.06 196.626 119.683 196.173 120.25C195.833 120.703 195.21 120.987 194.303 121.1C193.17 126.313 191.98 131.3 190.733 136.06C189.6 140.82 188.523 145.127 187.503 148.98C186.596 152.833 185.746 156.177 184.953 159.01C184.273 161.843 183.82 163.883 183.593 165.13C183.366 166.263 182.8 167 181.893 167.34C181.1 167.793 180.25 167.85 179.343 167.51C178.436 167.283 177.643 166.83 176.963 166.15C176.396 165.357 176.226 164.337 176.453 163.09C177.813 156.29 179.23 149.547 180.703 142.86C182.29 136.173 183.763 129.43 185.123 122.63C178.096 124.103 171.183 125.69 164.383 127.39C157.583 128.977 150.726 130.563 143.813 132.15C141.546 137.703 139.28 143.257 137.013 148.81C134.86 154.25 132.65 159.69 130.383 165.13C129.93 166.15 129.193 166.83 128.173 167.17C127.153 167.51 126.19 167.567 125.283 167.34C124.376 167.113 123.64 166.66 123.073 165.98C122.62 165.187 122.62 164.223 123.073 163.09C125.113 158.217 127.096 153.4 129.023 148.64C131.063 143.767 133.046 138.893 134.973 134.02C133.726 134.247 132.536 134.473 131.403 134.7C130.27 134.813 129.08 135.04 127.833 135.38C126.586 135.607 125.51 135.38 124.603 134.7C123.81 134.02 123.3 133.227 123.073 132.32C122.846 131.3 122.903 130.393 123.243 129.6C123.696 128.807 124.546 128.297 125.793 128.07C127.946 127.73 130.043 127.39 132.083 127.05C134.236 126.597 136.333 126.143 138.373 125.69C140.753 120.137 143.133 114.697 145.513 109.37C147.893 103.93 150.5 98.5467 153.333 93.22C156.28 87.44 159.396 81.7167 162.683 76.05C166.083 70.3833 169.823 65 173.903 59.9C174.923 58.7667 176 57.52 177.133 56.16C178.266 54.6867 179.513 53.3833 180.873 52.25C182.233 51.0033 183.65 49.9833 185.123 49.19C186.71 48.3967 188.353 48 190.053 48ZM147.213 123.82C153.786 122.233 160.303 120.647 166.763 119.06C173.336 117.473 180.023 116.057 186.823 114.81C187.276 112.203 187.73 109.653 188.183 107.16C188.75 104.553 189.203 101.947 189.543 99.34C190.45 94.1267 191.356 88.8567 192.263 83.53C193.17 78.2033 193.51 72.8767 193.283 67.55C193.17 65.2833 192.886 63.3 192.433 61.6C191.98 59.7867 191.3 58.54 190.393 57.86C189.486 57.0667 188.353 56.9533 186.993 57.52C185.633 57.9733 184.046 59.39 182.233 61.77C174.64 70.95 168.066 80.81 162.513 91.35C156.96 101.777 151.86 112.6 147.213 123.82ZM314.197 41.03C315.33 41.2567 316.123 41.7667 316.577 42.56C317.143 43.3533 317.37 44.26 317.257 45.28C317.257 46.1867 316.86 46.98 316.067 47.66C315.387 48.34 314.48 48.6233 313.347 48.51C303.713 47.2633 294.08 46.4133 284.447 45.96C274.927 45.5067 265.293 45.3933 255.547 45.62C253.847 55.7067 251.92 65.85 249.767 76.05C247.613 86.1367 245.403 96.28 243.137 106.48C240.983 116.68 238.887 126.88 236.847 137.08C234.807 147.28 233.05 157.423 231.577 167.51C231.35 168.757 230.783 169.607 229.877 170.06C229.083 170.513 228.233 170.683 227.327 170.57C226.42 170.57 225.57 170.23 224.777 169.55C224.097 168.87 223.87 167.907 224.097 166.66C225.57 156.687 227.27 146.657 229.197 136.57C231.237 126.483 233.333 116.397 235.487 106.31C237.753 96.11 239.963 85.9667 242.117 75.88C244.27 65.7933 246.197 55.82 247.897 45.96C238.603 46.3 229.31 46.8667 220.017 47.66C210.723 48.4533 201.487 49.4167 192.307 50.55C191.173 50.7767 190.267 50.55 189.587 49.87C188.793 49.0767 188.34 48.2267 188.227 47.32C188 46.4133 188.113 45.5633 188.567 44.77C189.02 43.8633 189.87 43.2967 191.117 43.07C200.863 41.9367 210.553 40.9733 220.187 40.18C229.933 39.3867 239.623 38.82 249.257 38.48C249.597 37.6867 250.107 37.0633 250.787 36.61C251.467 36.1567 252.147 35.93 252.827 35.93C253.62 35.93 254.357 36.1567 255.037 36.61C255.717 36.95 256.17 37.46 256.397 38.14C266.143 37.9133 275.777 38.0267 285.297 38.48C294.93 38.9333 304.563 39.7833 314.197 41.03ZM335.981 48C339.834 48 342.611 49.9833 344.311 53.95C346.011 57.9167 346.917 63.0733 347.031 69.42C347.144 75.7667 346.634 82.9633 345.501 91.01C344.367 98.9433 343.007 106.877 341.421 114.81C341.874 115.263 342.214 115.83 342.441 116.51C342.781 117.077 342.894 117.7 342.781 118.38C342.781 119.06 342.554 119.683 342.101 120.25C341.761 120.703 341.137 120.987 340.231 121.1C339.097 126.313 337.907 131.3 336.661 136.06C335.527 140.82 334.451 145.127 333.431 148.98C332.524 152.833 331.674 156.177 330.881 159.01C330.201 161.843 329.747 163.883 329.521 165.13C329.294 166.263 328.727 167 327.821 167.34C327.027 167.793 326.177 167.85 325.271 167.51C324.364 167.283 323.571 166.83 322.891 166.15C322.324 165.357 322.154 164.337 322.381 163.09C323.741 156.29 325.157 149.547 326.631 142.86C328.217 136.173 329.691 129.43 331.051 122.63C324.024 124.103 317.111 125.69 310.311 127.39C303.511 128.977 296.654 130.563 289.741 132.15C287.474 137.703 285.207 143.257 282.941 148.81C280.787 154.25 278.577 159.69 276.311 165.13C275.857 166.15 275.121 166.83 274.101 167.17C273.081 167.51 272.117 167.567 271.211 167.34C270.304 167.113 269.567 166.66 269.001 165.98C268.547 165.187 268.547 164.223 269.001 163.09C271.041 158.217 273.024 153.4 274.951 148.64C276.991 143.767 278.974 138.893 280.901 134.02C279.654 134.247 278.464 134.473 277.331 134.7C276.197 134.813 275.007 135.04 273.761 135.38C272.514 135.607 271.437 135.38 270.531 134.7C269.737 134.02 269.227 133.227 269.001 132.32C268.774 131.3 268.831 130.393 269.171 129.6C269.624 128.807 270.474 128.297 271.721 128.07C273.874 127.73 275.971 127.39 278.011 127.05C280.164 126.597 282.261 126.143 284.301 125.69C286.681 120.137 289.061 114.697 291.441 109.37C293.821 103.93 296.427 98.5467 299.261 93.22C302.207 87.44 305.324 81.7167 308.611 76.05C312.011 70.3833 315.751 65 319.831 59.9C320.851 58.7667 321.927 57.52 323.061 56.16C324.194 54.6867 325.441 53.3833 326.801 52.25C328.161 51.0033 329.577 49.9833 331.051 49.19C332.637 48.3967 334.281 48 335.981 48ZM293.141 123.82C299.714 122.233 306.231 120.647 312.691 119.06C319.264 117.473 325.951 116.057 332.751 114.81C333.204 112.203 333.657 109.653 334.111 107.16C334.677 104.553 335.131 101.947 335.471 99.34C336.377 94.1267 337.284 88.8567 338.191 83.53C339.097 78.2033 339.437 72.8767 339.211 67.55C339.097 65.2833 338.814 63.3 338.361 61.6C337.907 59.7867 337.227 58.54 336.321 57.86C335.414 57.0667 334.281 56.9533 332.921 57.52C331.561 57.9733 329.974 59.39 328.161 61.77C320.567 70.95 313.994 80.81 308.441 91.35C302.887 101.777 297.787 112.6 293.141 123.82ZM456.384 48.34C457.064 47.32 457.914 46.7533 458.934 46.64C459.954 46.4133 460.804 46.5833 461.484 47.15C462.278 47.6033 462.788 48.2833 463.014 49.19C463.241 50.0967 462.958 51.06 462.164 52.08C452.418 65.7933 443.238 79.96 434.624 94.58C426.124 109.087 417.624 123.48 409.124 137.76C407.311 140.707 405.271 144.163 403.004 148.13C400.738 151.983 398.188 155.61 395.354 159.01C392.521 162.297 389.348 164.903 385.834 166.83C382.434 168.643 378.694 169.04 374.614 168.02C370.874 167.113 367.871 164.96 365.604 161.56C363.451 158.16 361.751 154.307 360.504 150C359.258 145.693 358.351 141.33 357.784 136.91C357.331 132.377 356.934 128.58 356.594 125.52C355.688 116.227 355.064 106.877 354.724 97.47C354.384 87.95 354.271 78.3733 354.384 68.74C354.384 67.6067 354.781 66.7567 355.574 66.19C356.368 65.6233 357.218 65.34 358.124 65.34C359.144 65.34 359.994 65.6233 360.674 66.19C361.468 66.7567 361.864 67.6067 361.864 68.74C361.864 70.1 361.864 72.5933 361.864 76.22C361.864 79.8467 361.921 84.1533 362.034 89.14C362.148 94.0133 362.318 99.34 362.544 105.12C362.771 110.787 363.168 116.453 363.734 122.12C364.301 127.787 365.038 133.227 365.944 138.44C366.851 143.54 367.984 147.96 369.344 151.7C370.818 155.327 372.518 158.103 374.444 160.03C376.371 161.843 378.638 162.24 381.244 161.22C383.398 160.427 385.324 159.18 387.024 157.48C388.838 155.78 390.481 153.853 391.954 151.7C393.541 149.547 394.958 147.393 396.204 145.24C397.564 142.973 398.811 140.933 399.944 139.12C402.438 134.927 404.931 130.847 407.424 126.88C410.031 122.8 412.638 118.663 415.244 114.47C422.044 103.25 428.674 92.0867 435.134 80.98C441.708 69.8733 448.791 58.9933 456.384 48.34ZM469.501 53.27C469.614 52.1367 470.124 51.2867 471.031 50.72C471.938 50.04 472.844 49.7 473.751 49.7C474.658 49.7 475.451 49.9833 476.131 50.55C476.924 51.1167 477.264 52.0233 477.151 53.27C476.018 61.8833 474.431 71.0067 472.391 80.64C470.464 90.2733 468.254 99.9633 465.761 109.71C463.268 119.457 460.604 129.09 457.771 138.61C455.051 148.017 452.331 156.857 449.611 165.13C449.271 166.377 448.648 167.17 447.741 167.51C446.834 167.85 445.928 167.907 445.021 167.68C444.114 167.453 443.378 166.943 442.811 166.15C442.244 165.357 442.131 164.337 442.471 163.09C445.078 155.043 447.741 146.373 450.461 137.08C453.294 127.787 455.901 118.38 458.281 108.86C460.774 99.2267 462.984 89.7067 464.911 80.3C466.951 70.78 468.481 61.77 469.501 53.27ZM543.48 152.72C544.5 152.607 545.294 152.833 545.86 153.4C546.54 153.967 546.88 154.647 546.88 155.44C546.994 156.233 546.767 157.027 546.2 157.82C545.747 158.613 545.01 159.123 543.99 159.35C537.757 160.71 531.637 162.183 525.63 163.77C519.737 165.243 513.73 166.49 507.61 167.51C505.23 167.963 502.737 168.417 500.13 168.87C497.524 169.323 494.917 169.607 492.31 169.72C489.704 169.947 487.154 169.947 484.66 169.72C482.167 169.493 479.9 168.87 477.86 167.85C475.14 166.49 473.554 164.79 473.1 162.75C472.534 160.597 472.76 158.273 473.78 155.78C474.687 153.287 476.16 150.737 478.2 148.13C480.24 145.41 482.45 142.86 484.83 140.48C487.21 138.1 489.477 135.947 491.63 134.02C493.897 131.98 495.767 130.337 497.24 129.09C502 125.123 506.874 121.27 511.86 117.53C516.847 113.79 521.834 110.05 526.82 106.31C531.92 102.57 536.907 98.7733 541.78 94.92C546.767 91.0667 551.527 86.93 556.06 82.51C557.42 81.2633 559.064 79.6767 560.99 77.75C562.917 75.8233 564.73 73.7833 566.43 71.63C568.244 69.4767 569.83 67.2667 571.19 65C572.55 62.7333 573.344 60.6367 573.57 58.71C573.91 56.7833 573.57 55.0833 572.55 53.61C571.53 52.1367 569.49 51.06 566.43 50.38C561.444 49.36 556.23 48.9067 550.79 49.02C545.35 49.1333 539.797 49.7 534.13 50.72C528.577 51.6267 523.024 52.8733 517.47 54.46C511.917 56.0467 506.477 57.7467 501.15 59.56C500.017 59.9 499.167 59.8433 498.6 59.39C498.034 58.8233 497.694 58.1433 497.58 57.35C497.58 56.4433 497.807 55.5933 498.26 54.8C498.827 53.8933 499.62 53.2133 500.64 52.76C505.74 51.06 510.954 49.4733 516.28 48C521.607 46.5267 526.934 45.28 532.26 44.26C537.7 43.24 543.027 42.56 548.24 42.22C553.567 41.7667 558.667 41.88 563.54 42.56C565.24 42.9 567.11 43.3533 569.15 43.92C571.304 44.3733 573.23 45.0533 574.93 45.96C576.744 46.8667 578.217 48.0567 579.35 49.53C580.597 51.0033 581.164 52.8733 581.05 55.14C580.71 59.9 579.124 64.6033 576.29 69.25C573.457 73.7833 570 78.1467 565.92 82.34C561.954 86.42 557.704 90.2733 553.17 93.9C548.637 97.4133 544.5 100.53 540.76 103.25C535.094 107.557 529.427 111.807 523.76 116C518.207 120.08 512.654 124.387 507.1 128.92C504.834 130.62 502.397 132.49 499.79 134.53C497.297 136.57 494.804 138.723 492.31 140.99C489.93 143.143 487.72 145.467 485.68 147.96C483.64 150.453 481.997 153.003 480.75 155.61C479.504 158.103 480.014 159.86 482.28 160.88C484.547 161.787 487.72 162.183 491.8 162.07C495.994 161.957 500.754 161.447 506.08 160.54C511.52 159.633 516.734 158.67 521.72 157.65C526.82 156.517 531.354 155.497 535.32 154.59C539.287 153.683 542.007 153.06 543.48 152.72Z" fill="black"/>
<path d="M92.7 217.52C96.2133 219.56 99.2167 222.11 101.71 225.17C104.203 228.23 106.073 231.573 107.32 235.2C108.567 238.827 109.133 242.623 109.02 246.59C109.02 250.557 108.227 254.467 106.64 258.32C104.147 264.667 100.18 270.333 94.74 275.32C89.4133 280.307 83.2933 284.613 76.38 288.24C69.4667 291.753 62.1 294.53 54.28 296.57C46.46 298.61 38.9233 299.857 31.67 300.31C48.7833 308.017 66.6333 313.4 85.22 316.46C86.3533 316.687 87.09 317.197 87.43 317.99C87.8833 318.783 87.94 319.633 87.6 320.54C87.3733 321.333 86.8633 322.07 86.07 322.75C85.39 323.43 84.4833 323.657 83.35 323.43C60.7967 319.69 39.3767 312.607 19.09 302.18C17.73 307.847 16.37 313.57 15.01 319.35C13.7633 325.017 12.5733 330.683 11.44 336.35C11.2133 337.483 10.6467 338.22 9.74 338.56C8.94667 338.9 8.09667 338.957 7.19 338.73C6.39667 338.503 5.71667 337.993 5.15 337.2C4.47 336.52 4.24333 335.613 4.47 334.48C6.51 323.94 8.72 313.627 11.1 303.54C13.5933 293.34 16.0867 283.253 18.58 273.28C21.1867 263.193 23.7367 253.107 26.23 243.02C28.7233 232.933 31.0467 222.677 33.2 212.25C33.3133 211.117 33.7667 210.38 34.56 210.04C35.4667 209.587 36.3167 209.473 37.11 209.7C38.0167 209.927 38.7533 210.437 39.32 211.23C40 212.023 40.2267 212.987 40 214.12C40 214.347 39.9433 214.517 39.83 214.63C39.83 214.63 39.83 214.743 39.83 214.97C43.91 213.61 48.2733 212.59 52.92 211.91C57.5667 211.117 62.2133 210.777 66.86 210.89C71.5067 211.003 76.04 211.627 80.46 212.76C84.88 213.78 88.96 215.367 92.7 217.52ZM97.12 261.21C99.5 257.357 100.917 253.39 101.37 249.31C101.937 245.117 101.597 241.15 100.35 237.41C99.1033 233.67 97.0067 230.327 94.06 227.38C91.1133 224.433 87.3733 222.337 82.84 221.09C75.5867 218.823 68.05 217.973 60.23 218.54C52.5233 218.993 45.1 220.523 37.96 223.13C35.4667 234.917 32.7467 246.647 29.8 258.32C26.8533 269.993 23.9633 281.723 21.13 293.51C27.59 294.077 34.56 293.68 42.04 292.32C49.52 290.96 56.7733 288.863 63.8 286.03C70.8267 283.197 77.2867 279.683 83.18 275.49C89.0733 271.297 93.72 266.537 97.12 261.21ZM136.75 218.03C142.417 214.857 148.31 212.533 154.43 211.06C160.55 209.473 166.273 209.247 171.6 210.38C176.927 211.4 181.517 213.893 185.37 217.86C189.337 221.827 191.943 227.72 193.19 235.54C194.323 242.567 194.493 249.763 193.7 257.13C193.02 264.497 191.49 271.693 189.11 278.72C186.73 285.747 183.557 292.433 179.59 298.78C175.737 305.127 171.317 310.793 166.33 315.78C163.61 318.5 160.437 321.05 156.81 323.43C153.183 325.697 149.443 327.51 145.59 328.87C141.737 330.23 137.94 331.023 134.2 331.25C130.46 331.477 127.003 330.91 123.83 329.55C120.77 328.19 118.163 325.923 116.01 322.75C113.97 319.577 112.723 315.213 112.27 309.66C111.703 303.087 111.873 296.173 112.78 288.92C113.687 281.553 115.16 274.3 117.2 267.16C119.24 260.02 121.733 253.107 124.68 246.42C127.74 239.62 131.14 233.5 134.88 228.06C135.56 227.04 136.353 226.53 137.26 226.53C138.28 226.53 139.187 226.87 139.98 227.55C140.773 228.117 141.283 228.91 141.51 229.93C141.737 230.837 141.51 231.8 140.83 232.82C137.657 237.353 134.767 242.397 132.16 247.95C129.667 253.39 127.513 259.057 125.7 264.95C124 270.73 122.583 276.623 121.45 282.63C120.43 288.523 119.807 294.19 119.58 299.63C119.467 301.67 119.467 304.107 119.58 306.94C119.693 309.66 120.09 312.323 120.77 314.93C121.45 317.423 122.583 319.633 124.17 321.56C125.757 323.373 127.967 324.337 130.8 324.45C133.86 324.677 136.92 324.393 139.98 323.6C143.04 322.693 145.987 321.503 148.82 320.03C151.653 318.443 154.317 316.63 156.81 314.59C159.303 312.437 161.57 310.227 163.61 307.96C167.463 303.54 170.977 298.667 174.15 293.34C177.323 287.9 179.93 282.233 181.97 276.34C184.123 270.447 185.597 264.44 186.39 258.32C187.183 252.2 187.183 246.137 186.39 240.13C186.05 237.977 185.597 235.767 185.03 233.5C184.463 231.233 183.67 229.08 182.65 227.04C181.63 224.887 180.327 223.017 178.74 221.43C177.267 219.73 175.397 218.483 173.13 217.69C170.297 216.557 167.407 216.047 164.46 216.16C161.513 216.273 158.567 216.783 155.62 217.69C152.787 218.483 150.01 219.56 147.29 220.92C144.57 222.28 141.963 223.64 139.47 225C138.337 225.567 137.373 225.68 136.58 225.34C135.787 224.887 135.22 224.263 134.88 223.47C134.54 222.563 134.483 221.6 134.71 220.58C135.05 219.56 135.73 218.71 136.75 218.03ZM332.49 202.73C338.61 200.917 343.54 201.2 347.28 203.58C351.134 205.847 353.23 210.607 353.57 217.86C353.91 226.36 353.23 234.917 351.53 243.53C349.944 252.03 348.13 260.587 346.09 269.2C343.597 280.08 340.764 290.903 337.59 301.67C334.417 312.323 331.98 323.147 330.28 334.14C330.054 335.387 329.487 336.18 328.58 336.52C327.787 336.973 326.937 337.03 326.03 336.69C325.124 336.463 324.33 335.953 323.65 335.16C322.97 334.367 322.744 333.347 322.97 332.1C324.557 322.467 326.71 312.947 329.43 303.54C332.264 294.133 334.814 284.67 337.08 275.15C337.987 271.297 338.95 267.33 339.97 263.25C341.104 259.057 342.124 254.863 343.03 250.67C344.05 246.363 344.9 242.17 345.58 238.09C346.374 233.897 346.884 229.817 347.11 225.85C347.45 221.657 346.94 218.2 345.58 215.48C344.334 212.76 342.464 211.06 339.97 210.38C337.477 209.7 334.53 210.153 331.13 211.74C327.73 213.327 323.99 216.33 319.91 220.75C314.47 226.87 309.37 233.443 304.61 240.47C299.85 247.497 295.26 254.58 290.84 261.72C289.254 264.327 287.61 266.99 285.91 269.71C284.21 272.43 282.397 275.15 280.47 277.87C278.544 280.59 276.504 283.197 274.35 285.69C272.31 288.07 270.157 290.167 267.89 291.98C265.964 293.567 264.094 294.473 262.28 294.7C260.58 294.813 258.994 294.36 257.52 293.34C256.16 292.32 254.97 290.847 253.95 288.92C252.93 286.993 252.194 284.67 251.74 281.95C250.834 277.19 250.267 272.487 250.04 267.84C249.927 263.08 249.644 258.32 249.19 253.56C248.964 251.86 248.794 249.197 248.68 245.57C248.567 241.83 248.227 237.977 247.66 234.01C247.207 230.043 246.47 226.417 245.45 223.13C244.544 219.73 243.184 217.577 241.37 216.67C240.35 216.103 239.104 216.727 237.63 218.54C236.157 220.353 234.627 222.79 233.04 225.85C231.454 228.91 229.867 232.31 228.28 236.05C226.694 239.79 225.22 243.417 223.86 246.93C222.614 250.33 221.537 253.333 220.63 255.94C219.724 258.547 219.157 260.133 218.93 260.7C215.757 270.22 213.15 280.59 211.11 291.81C209.07 302.917 207.937 313.74 207.71 324.28C207.71 325.527 207.314 326.433 206.52 327C205.727 327.567 204.82 327.85 203.8 327.85C202.894 327.85 202.044 327.567 201.25 327C200.57 326.433 200.23 325.527 200.23 324.28C200.344 312.153 201.647 299.913 204.14 287.56C206.634 275.093 209.864 263.363 213.83 252.37C214.85 249.65 216.097 245.967 217.57 241.32C219.044 236.673 220.8 232.083 222.84 227.55C224.994 223.017 227.43 218.993 230.15 215.48C232.984 211.967 236.214 209.87 239.84 209.19C242.56 208.737 244.884 209.53 246.81 211.57C248.737 213.497 250.38 216.273 251.74 219.9C253.1 223.527 254.177 227.72 254.97 232.48C255.764 237.24 256.444 242.17 257.01 247.27C257.577 252.257 257.974 257.187 258.2 262.06C258.54 266.933 258.824 271.24 259.05 274.98C259.164 277.133 259.22 279.117 259.22 280.93C259.334 282.63 259.56 283.99 259.9 285.01C260.354 286.03 260.977 286.54 261.77 286.54C262.564 286.54 263.81 285.86 265.51 284.5C267.324 283.027 269.137 281.043 270.95 278.55C272.877 276.057 274.69 273.45 276.39 270.73C278.204 268.01 279.847 265.347 281.32 262.74C282.907 260.133 284.267 257.98 285.4 256.28C289.14 250.727 292.824 245.117 296.45 239.45C300.19 233.783 304.157 228.23 308.35 222.79C309.937 220.863 311.58 218.88 313.28 216.84C315.094 214.687 316.964 212.703 318.89 210.89C320.93 209.077 323.084 207.433 325.35 205.96C327.617 204.487 329.997 203.41 332.49 202.73ZM425.629 208C429.482 208 432.259 209.983 433.959 213.95C435.659 217.917 436.566 223.073 436.679 229.42C436.792 235.767 436.282 242.963 435.149 251.01C434.016 258.943 432.656 266.877 431.069 274.81C431.522 275.263 431.862 275.83 432.089 276.51C432.429 277.077 432.542 277.7 432.429 278.38C432.429 279.06 432.202 279.683 431.749 280.25C431.409 280.703 430.786 280.987 429.879 281.1C428.746 286.313 427.556 291.3 426.309 296.06C425.176 300.82 424.099 305.127 423.079 308.98C422.172 312.833 421.322 316.177 420.529 319.01C419.849 321.843 419.396 323.883 419.169 325.13C418.942 326.263 418.376 327 417.469 327.34C416.676 327.793 415.826 327.85 414.919 327.51C414.012 327.283 413.219 326.83 412.539 326.15C411.972 325.357 411.802 324.337 412.029 323.09C413.389 316.29 414.806 309.547 416.279 302.86C417.866 296.173 419.339 289.43 420.699 282.63C413.672 284.103 406.759 285.69 399.959 287.39C393.159 288.977 386.302 290.563 379.389 292.15C377.122 297.703 374.856 303.257 372.589 308.81C370.436 314.25 368.226 319.69 365.959 325.13C365.506 326.15 364.769 326.83 363.749 327.17C362.729 327.51 361.766 327.567 360.859 327.34C359.952 327.113 359.216 326.66 358.649 325.98C358.196 325.187 358.196 324.223 358.649 323.09C360.689 318.217 362.672 313.4 364.599 308.64C366.639 303.767 368.622 298.893 370.549 294.02C369.302 294.247 368.112 294.473 366.979 294.7C365.846 294.813 364.656 295.04 363.409 295.38C362.162 295.607 361.086 295.38 360.179 294.7C359.386 294.02 358.876 293.227 358.649 292.32C358.422 291.3 358.479 290.393 358.819 289.6C359.272 288.807 360.122 288.297 361.369 288.07C363.522 287.73 365.619 287.39 367.659 287.05C369.812 286.597 371.909 286.143 373.949 285.69C376.329 280.137 378.709 274.697 381.089 269.37C383.469 263.93 386.076 258.547 388.909 253.22C391.856 247.44 394.972 241.717 398.259 236.05C401.659 230.383 405.399 225 409.479 219.9C410.499 218.767 411.576 217.52 412.709 216.16C413.842 214.687 415.089 213.383 416.449 212.25C417.809 211.003 419.226 209.983 420.699 209.19C422.286 208.397 423.929 208 425.629 208ZM382.789 283.82C389.362 282.233 395.879 280.647 402.339 279.06C408.912 277.473 415.599 276.057 422.399 274.81C422.852 272.203 423.306 269.653 423.759 267.16C424.326 264.553 424.779 261.947 425.119 259.34C426.026 254.127 426.932 248.857 427.839 243.53C428.746 238.203 429.086 232.877 428.859 227.55C428.746 225.283 428.462 223.3 428.009 221.6C427.556 219.787 426.876 218.54 425.969 217.86C425.062 217.067 423.929 216.953 422.569 217.52C421.209 217.973 419.622 219.39 417.809 221.77C410.216 230.95 403.642 240.81 398.089 251.35C392.536 261.777 387.436 272.6 382.789 283.82ZM429.539 174.85C432.259 174.283 434.526 174.68 436.339 176.04C438.152 177.287 439.626 178.987 440.759 181.14C442.006 183.293 442.912 185.673 443.479 188.28C444.159 190.773 444.669 192.927 445.009 194.74C445.236 195.873 445.009 196.837 444.329 197.63C443.762 198.423 443.026 198.933 442.119 199.16C441.212 199.387 440.306 199.33 439.399 198.99C438.606 198.65 438.039 197.857 437.699 196.61C437.586 195.59 437.359 194.117 437.019 192.19C436.679 190.263 436.169 188.45 435.489 186.75C434.809 184.937 433.902 183.633 432.769 182.84C431.749 181.933 430.389 182.103 428.689 183.35C425.516 185.39 422.852 187.94 420.699 191C418.659 194.06 416.789 197.007 415.089 199.84C414.409 200.86 413.559 201.483 412.539 201.71C411.519 201.823 410.612 201.653 409.819 201.2C409.026 200.747 408.459 200.067 408.119 199.16C407.779 198.253 407.949 197.29 408.629 196.27C409.762 194.457 411.009 192.417 412.369 190.15C413.842 187.77 415.429 185.56 417.129 183.52C418.829 181.48 420.699 179.667 422.739 178.08C424.779 176.493 427.046 175.417 429.539 174.85ZM570.683 198.31C571.023 197.177 571.646 196.44 572.553 196.1C573.573 195.76 574.536 195.76 575.443 196.1C576.35 196.327 577.086 196.837 577.653 197.63C578.22 198.31 578.276 199.217 577.823 200.35C574.196 209.87 570.966 219.617 568.133 229.59C565.3 239.563 562.296 249.537 559.123 259.51C556.063 269.37 552.55 279.06 548.583 288.58C544.616 298.1 539.686 307.053 533.793 315.44C530.506 320.313 527.163 323.43 523.763 324.79C520.363 326.15 517.133 326.263 514.073 325.13C511.013 323.883 508.18 321.617 505.573 318.33C503.08 314.93 501.096 310.963 499.623 306.43C497.583 300.31 495.883 294.133 494.523 287.9C493.276 281.667 492.2 275.32 491.293 268.86C490.84 266.14 490.5 263.363 490.273 260.53C490.046 257.583 489.82 254.693 489.593 251.86C489.366 248.913 488.97 246.08 488.403 243.36C487.95 240.527 487.213 237.807 486.193 235.2C485.513 233.613 484.833 232.593 484.153 232.14C483.473 231.687 482.736 231.63 481.943 231.97C481.15 232.31 480.356 232.99 479.563 234.01C478.883 234.917 478.146 235.993 477.353 237.24C472.253 245.4 467.946 253.56 464.433 261.72C460.92 269.88 457.973 277.87 455.593 285.69C453.213 293.51 451.23 301.103 449.643 308.47C448.056 315.723 446.64 322.637 445.393 329.21C445.28 330.457 444.77 331.363 443.863 331.93C443.07 332.61 442.22 332.95 441.313 332.95C440.406 332.95 439.613 332.61 438.933 331.93C438.14 331.363 437.856 330.457 438.083 329.21C440.35 311.757 444.656 294.53 451.003 277.53C457.35 260.53 464.716 244.777 473.103 230.27C474.123 228.91 475.313 227.607 476.673 226.36C478.146 225.113 479.62 224.263 481.093 223.81C482.68 223.243 484.21 223.187 485.683 223.64C487.27 223.98 488.743 225.113 490.103 227.04C491.803 229.307 493.05 231.8 493.843 234.52C494.75 237.127 495.43 239.847 495.883 242.68C496.336 245.513 496.62 248.347 496.733 251.18C496.96 254.013 497.186 256.79 497.413 259.51C497.526 260.983 497.866 263.76 498.433 267.84C499.113 271.807 499.963 276.34 500.983 281.44C502.116 286.427 503.42 291.527 504.893 296.74C506.48 301.84 508.18 306.317 509.993 310.17C511.92 313.91 513.96 316.573 516.113 318.16C518.266 319.633 520.533 319.18 522.913 316.8C526.653 313.06 529.94 308.81 532.773 304.05C535.606 299.29 538.1 294.303 540.253 289.09C542.52 283.877 544.503 278.607 546.203 273.28C548.016 267.84 549.716 262.683 551.303 257.81C554.476 247.723 557.536 237.75 560.483 227.89C563.543 218.03 566.943 208.17 570.683 198.31ZM596.337 213.27C596.45 212.137 596.96 211.287 597.867 210.72C598.774 210.04 599.68 209.7 600.587 209.7C601.494 209.7 602.287 209.983 602.967 210.55C603.76 211.117 604.1 212.023 603.987 213.27C602.854 221.883 601.267 231.007 599.227 240.64C597.3 250.273 595.09 259.963 592.597 269.71C590.104 279.457 587.44 289.09 584.607 298.61C581.887 308.017 579.167 316.857 576.447 325.13C576.107 326.377 575.484 327.17 574.577 327.51C573.67 327.85 572.764 327.907 571.857 327.68C570.95 327.453 570.214 326.943 569.647 326.15C569.08 325.357 568.967 324.337 569.307 323.09C571.914 315.043 574.577 306.373 577.297 297.08C580.13 287.787 582.737 278.38 585.117 268.86C587.61 259.227 589.82 249.707 591.747 240.3C593.787 230.78 595.317 221.77 596.337 213.27ZM671.166 208C675.02 208 677.796 209.983 679.496 213.95C681.196 217.917 682.103 223.073 682.216 229.42C682.33 235.767 681.82 242.963 680.686 251.01C679.553 258.943 678.193 266.877 676.606 274.81C677.06 275.263 677.4 275.83 677.626 276.51C677.966 277.077 678.08 277.7 677.966 278.38C677.966 279.06 677.74 279.683 677.286 280.25C676.946 280.703 676.323 280.987 675.416 281.1C674.283 286.313 673.093 291.3 671.846 296.06C670.713 300.82 669.636 305.127 668.616 308.98C667.71 312.833 666.86 316.177 666.066 319.01C665.386 321.843 664.933 323.883 664.706 325.13C664.48 326.263 663.913 327 663.006 327.34C662.213 327.793 661.363 327.85 660.456 327.51C659.55 327.283 658.756 326.83 658.076 326.15C657.51 325.357 657.34 324.337 657.566 323.09C658.926 316.29 660.343 309.547 661.816 302.86C663.403 296.173 664.876 289.43 666.236 282.63C659.21 284.103 652.296 285.69 645.496 287.39C638.696 288.977 631.84 290.563 624.926 292.15C622.66 297.703 620.393 303.257 618.126 308.81C615.973 314.25 613.763 319.69 611.496 325.13C611.043 326.15 610.306 326.83 609.286 327.17C608.266 327.51 607.303 327.567 606.396 327.34C605.49 327.113 604.753 326.66 604.186 325.98C603.733 325.187 603.733 324.223 604.186 323.09C606.226 318.217 608.21 313.4 610.136 308.64C612.176 303.767 614.16 298.893 616.086 294.02C614.84 294.247 613.65 294.473 612.516 294.7C611.383 294.813 610.193 295.04 608.946 295.38C607.7 295.607 606.623 295.38 605.716 294.7C604.923 294.02 604.413 293.227 604.186 292.32C603.96 291.3 604.016 290.393 604.356 289.6C604.81 288.807 605.66 288.297 606.906 288.07C609.06 287.73 611.156 287.39 613.196 287.05C615.35 286.597 617.446 286.143 619.486 285.69C621.866 280.137 624.246 274.697 626.626 269.37C629.006 263.93 631.613 258.547 634.446 253.22C637.393 247.44 640.51 241.717 643.796 236.05C647.196 230.383 650.936 225 655.016 219.9C656.036 218.767 657.113 217.52 658.246 216.16C659.38 214.687 660.626 213.383 661.986 212.25C663.346 211.003 664.763 209.983 666.236 209.19C667.823 208.397 669.466 208 671.166 208ZM628.326 283.82C634.9 282.233 641.416 280.647 647.876 279.06C654.45 277.473 661.136 276.057 667.936 274.81C668.39 272.203 668.843 269.653 669.296 267.16C669.863 264.553 670.316 261.947 670.656 259.34C671.563 254.127 672.47 248.857 673.376 243.53C674.283 238.203 674.623 232.877 674.396 227.55C674.283 225.283 674 223.3 673.546 221.6C673.093 219.787 672.413 218.54 671.506 217.86C670.6 217.067 669.466 216.953 668.106 217.52C666.746 217.973 665.16 219.39 663.346 221.77C655.753 230.95 649.18 240.81 643.626 251.35C638.073 261.777 632.973 272.6 628.326 283.82Z" fill="black"/>
</g>
<defs>
<clipPath id="clip0">
<rect width="690" height="400" fill="none"/>
</clipPath>
</defs>
</svg>
